<svg width="228" height="162" viewBox="0 0 228 162" fill="none" xmlns="http://www.w3.org/2000/svg">
<rect x="1.5" y="1.5" width="225" height="159" rx="18.5" fill="#3A2050" fill-opacity="0.7" stroke="#B0E31B" stroke-width="3"/>
<path d="M41.5238 32.3672H38.2816V31.5469H41.5238C42.2009 31.5469 42.7503 31.4375 43.1722 31.2188C43.5993 30.9948 43.9092 30.6927 44.1019 30.3125C44.2998 29.9323 44.3988 29.5052 44.3988 29.0312C44.3988 28.5677 44.2998 28.1406 44.1019 27.75C43.9092 27.3594 43.5993 27.0469 43.1722 26.8125C42.7503 26.5729 42.2009 26.4531 41.5238 26.4531H38.6175V37H37.6566V25.625H41.5238C42.3571 25.625 43.0576 25.7682 43.6253 26.0547C44.1983 26.3411 44.6306 26.7396 44.9222 27.25C45.2139 27.7604 45.3597 28.349 45.3597 29.0156C45.3597 29.7135 45.2139 30.3151 44.9222 30.8203C44.6306 31.3203 44.2009 31.7031 43.6332 31.9688C43.0654 32.2344 42.3623 32.3672 41.5238 32.3672ZM48.3363 25V37H47.4066V25H48.3363ZM54.1566 37.1562C53.6045 37.1562 53.0967 37.0547 52.6332 36.8516C52.1748 36.6484 51.7738 36.362 51.43 35.9922C51.0915 35.6224 50.8285 35.1849 50.641 34.6797C50.4587 34.1693 50.3675 33.612 50.3675 33.0078V32.6719C50.3675 32.0208 50.4639 31.4323 50.6566 30.9062C50.8493 30.3802 51.1149 29.9297 51.4535 29.5547C51.792 29.1797 52.1774 28.8932 52.6097 28.6953C53.0472 28.4922 53.5056 28.3906 53.9847 28.3906C54.5212 28.3906 54.9977 28.487 55.4144 28.6797C55.8311 28.8672 56.18 29.1354 56.4613 29.4844C56.7477 29.8281 56.9639 30.237 57.1097 30.7109C57.2556 31.1797 57.3285 31.6979 57.3285 32.2656V32.8359H50.93V32.0391H56.3988V31.9297C56.3884 31.4557 56.292 31.013 56.1097 30.6016C55.9326 30.1849 55.667 29.8464 55.3128 29.5859C54.9587 29.3255 54.516 29.1953 53.9847 29.1953C53.5889 29.1953 53.2243 29.2786 52.891 29.4453C52.5628 29.612 52.279 29.8516 52.0394 30.1641C51.805 30.4714 51.6227 30.8385 51.4925 31.2656C51.3675 31.6875 51.305 32.1562 51.305 32.6719V33.0078C51.305 33.4766 51.3727 33.9141 51.5082 34.3203C51.6488 34.7214 51.8467 35.0755 52.1019 35.3828C52.3623 35.6901 52.6696 35.9297 53.0238 36.1016C53.3779 36.2734 53.7686 36.3594 54.1957 36.3594C54.6957 36.3594 55.1384 36.2682 55.5238 36.0859C55.9092 35.8984 56.2556 35.6042 56.5628 35.2031L57.1488 35.6562C56.9665 35.9271 56.7373 36.1771 56.4613 36.4062C56.1904 36.6354 55.8649 36.8177 55.4847 36.9531C55.1045 37.0885 54.6618 37.1562 54.1566 37.1562ZM64.3128 35.4844V31.125C64.3128 30.724 64.2295 30.3776 64.0628 30.0859C63.8962 29.7943 63.6514 29.5703 63.3285 29.4141C63.0056 29.2578 62.6071 29.1797 62.1332 29.1797C61.6957 29.1797 61.305 29.2578 60.9613 29.4141C60.6227 29.5651 60.3545 29.7708 60.1566 30.0312C59.9639 30.2865 59.8675 30.5703 59.8675 30.8828L58.93 30.875C58.93 30.5573 59.0082 30.25 59.1644 29.9531C59.3207 29.6562 59.542 29.3906 59.8285 29.1562C60.1149 28.9219 60.4561 28.737 60.8519 28.6016C61.2529 28.4609 61.6931 28.3906 62.1722 28.3906C62.7764 28.3906 63.3076 28.4922 63.766 28.6953C64.2295 28.8984 64.5915 29.2031 64.8519 29.6094C65.1123 30.0156 65.2425 30.526 65.2425 31.1406V35.2266C65.2425 35.5182 65.2634 35.8203 65.305 36.1328C65.3519 36.4453 65.417 36.7031 65.5003 36.9062V37H64.5082C64.4457 36.8125 64.3962 36.5781 64.3597 36.2969C64.3285 36.0104 64.3128 35.7396 64.3128 35.4844ZM64.5316 32.0781L64.5472 32.7969H62.7113C62.2321 32.7969 61.8024 32.8411 61.4222 32.9297C61.0472 33.013 60.7295 33.138 60.4691 33.3047C60.2087 33.4661 60.0082 33.6615 59.8675 33.8906C59.7321 34.1198 59.6644 34.3802 59.6644 34.6719C59.6644 34.974 59.7399 35.25 59.891 35.5C60.0472 35.75 60.266 35.9505 60.5472 36.1016C60.8337 36.2474 61.1722 36.3203 61.5628 36.3203C62.0837 36.3203 62.542 36.224 62.9378 36.0312C63.3389 35.8385 63.6696 35.5859 63.93 35.2734C64.1904 34.9609 64.3649 34.6198 64.4535 34.25L64.8597 34.7891C64.792 35.0495 64.667 35.3177 64.4847 35.5938C64.3076 35.8646 64.0759 36.1198 63.7894 36.3594C63.5029 36.5938 63.1644 36.7865 62.7738 36.9375C62.3884 37.0833 61.9509 37.1562 61.4613 37.1562C60.9092 37.1562 60.4274 37.0521 60.016 36.8438C59.6097 36.6354 59.292 36.3516 59.0628 35.9922C58.8389 35.6276 58.7269 35.2161 58.7269 34.7578C58.7269 34.3411 58.8154 33.9688 58.9925 33.6406C59.1696 33.3073 59.4248 33.026 59.7582 32.7969C60.0967 32.5625 60.5029 32.3854 60.9769 32.2656C61.4561 32.1406 61.9925 32.0781 62.5863 32.0781H64.5316ZM72.8128 34.8438C72.8128 34.6146 72.7556 34.388 72.641 34.1641C72.5264 33.9401 72.305 33.7344 71.9769 33.5469C71.654 33.3594 71.1774 33.2005 70.5472 33.0703C70.0785 32.9661 69.6592 32.849 69.2894 32.7188C68.9248 32.5885 68.6175 32.4323 68.3675 32.25C68.1175 32.0677 67.9274 31.849 67.7972 31.5938C67.667 31.3385 67.6019 31.0365 67.6019 30.6875C67.6019 30.375 67.6696 30.0807 67.805 29.8047C67.9457 29.5234 68.1436 29.2786 68.3988 29.0703C68.6592 28.8568 68.9717 28.6901 69.3363 28.5703C69.7061 28.4505 70.1201 28.3906 70.5785 28.3906C71.2295 28.3906 71.7868 28.5026 72.2503 28.7266C72.7191 28.9453 73.0759 29.2448 73.3207 29.625C73.5707 30.0052 73.6957 30.4349 73.6957 30.9141H72.766C72.766 30.6224 72.68 30.3464 72.5082 30.0859C72.3415 29.8255 72.0941 29.612 71.766 29.4453C71.4431 29.2786 71.0472 29.1953 70.5785 29.1953C70.0941 29.1953 69.7009 29.2682 69.3988 29.4141C69.0967 29.5599 68.8753 29.7448 68.7347 29.9688C68.5993 30.1927 68.5316 30.4245 68.5316 30.6641C68.5316 30.8516 68.5602 31.0234 68.6175 31.1797C68.68 31.3307 68.7894 31.4714 68.9457 31.6016C69.1071 31.7318 69.3363 31.8542 69.6332 31.9688C69.93 32.0833 70.3154 32.1953 70.7894 32.3047C71.4717 32.4557 72.029 32.6406 72.4613 32.8594C72.8988 33.0729 73.2217 33.3385 73.43 33.6562C73.6384 33.9688 73.7425 34.349 73.7425 34.7969C73.7425 35.1458 73.6696 35.4661 73.5238 35.7578C73.3779 36.0443 73.167 36.2917 72.891 36.5C72.6201 36.7083 72.292 36.8698 71.9066 36.9844C71.5264 37.099 71.0993 37.1562 70.6253 37.1562C69.9118 37.1562 69.3076 37.0391 68.8128 36.8047C68.3233 36.5651 67.9509 36.2526 67.6957 35.8672C67.4457 35.4766 67.3207 35.0625 67.3207 34.625H68.2503C68.2816 35.0625 68.4196 35.4089 68.6644 35.6641C68.9092 35.9141 69.2087 36.0911 69.5628 36.1953C69.9222 36.2995 70.2764 36.3516 70.6253 36.3516C71.1045 36.3516 71.5056 36.2812 71.8285 36.1406C72.1514 36 72.3962 35.8151 72.5628 35.5859C72.7295 35.3568 72.8128 35.1094 72.8128 34.8438ZM79.1253 37.1562C78.5733 37.1562 78.0654 37.0547 77.6019 36.8516C77.1436 36.6484 76.7425 36.362 76.3988 35.9922C76.0602 35.6224 75.7972 35.1849 75.6097 34.6797C75.4274 34.1693 75.3363 33.612 75.3363 33.0078V32.6719C75.3363 32.0208 75.4326 31.4323 75.6253 30.9062C75.8181 30.3802 76.0837 29.9297 76.4222 29.5547C76.7608 29.1797 77.1462 28.8932 77.5785 28.6953C78.016 28.4922 78.4743 28.3906 78.9535 28.3906C79.4899 28.3906 79.9665 28.487 80.3832 28.6797C80.7998 28.8672 81.1488 29.1354 81.43 29.4844C81.7165 29.8281 81.9326 30.237 82.0785 30.7109C82.2243 31.1797 82.2972 31.6979 82.2972 32.2656V32.8359H75.8988V32.0391H81.3675V31.9297C81.3571 31.4557 81.2608 31.013 81.0785 30.6016C80.9014 30.1849 80.6358 29.8464 80.2816 29.5859C79.9274 29.3255 79.4847 29.1953 78.9535 29.1953C78.5576 29.1953 78.1931 29.2786 77.8597 29.4453C77.5316 29.612 77.2477 29.8516 77.0082 30.1641C76.7738 30.4714 76.5915 30.8385 76.4613 31.2656C76.3363 31.6875 76.2738 32.1562 76.2738 32.6719V33.0078C76.2738 33.4766 76.3415 33.9141 76.4769 34.3203C76.6175 34.7214 76.8154 35.0755 77.0707 35.3828C77.3311 35.6901 77.6384 35.9297 77.9925 36.1016C78.3467 36.2734 78.7373 36.3594 79.1644 36.3594C79.6644 36.3594 80.1071 36.2682 80.4925 36.0859C80.8779 35.8984 81.2243 35.6042 81.5316 35.2031L82.1175 35.6562C81.9352 35.9271 81.7061 36.1771 81.43 36.4062C81.1592 36.6354 80.8337 36.8177 80.4535 36.9531C80.0733 37.0885 79.6306 37.1562 79.1253 37.1562ZM88.9769 29.9453V37H88.0472V28.5469H88.9535L88.9769 29.9453ZM91.9691 28.4844L91.9457 29.3438C91.8415 29.3281 91.7399 29.3151 91.641 29.3047C91.542 29.2943 91.4352 29.2891 91.3207 29.2891C90.9144 29.2891 90.5576 29.3646 90.2503 29.5156C89.9483 29.6615 89.6931 29.8672 89.4847 30.1328C89.2764 30.3932 89.1175 30.7005 89.0082 31.0547C88.8988 31.4036 88.8363 31.7786 88.8207 32.1797L88.4769 32.3125C88.4769 31.7604 88.5342 31.2474 88.6488 30.7734C88.7634 30.2995 88.9378 29.8854 89.1722 29.5312C89.4118 29.1719 89.7113 28.8932 90.0707 28.6953C90.4352 28.4922 90.8623 28.3906 91.3519 28.3906C91.4717 28.3906 91.5889 28.401 91.7035 28.4219C91.8233 28.4375 91.9118 28.4583 91.9691 28.4844ZM96.5472 37.1562C95.9951 37.1562 95.4873 37.0547 95.0238 36.8516C94.5654 36.6484 94.1644 36.362 93.8207 35.9922C93.4821 35.6224 93.2191 35.1849 93.0316 34.6797C92.8493 34.1693 92.7582 33.612 92.7582 33.0078V32.6719C92.7582 32.0208 92.8545 31.4323 93.0472 30.9062C93.2399 30.3802 93.5056 29.9297 93.8441 29.5547C94.1826 29.1797 94.5681 28.8932 95.0003 28.6953C95.4378 28.4922 95.8962 28.3906 96.3753 28.3906C96.9118 28.3906 97.3884 28.487 97.805 28.6797C98.2217 28.8672 98.5707 29.1354 98.8519 29.4844C99.1384 29.8281 99.3545 30.237 99.5003 30.7109C99.6462 31.1797 99.7191 31.6979 99.7191 32.2656V32.8359H93.3207V32.0391H98.7894V31.9297C98.779 31.4557 98.6826 31.013 98.5003 30.6016C98.3233 30.1849 98.0576 29.8464 97.7035 29.5859C97.3493 29.3255 96.9066 29.1953 96.3753 29.1953C95.9795 29.1953 95.6149 29.2786 95.2816 29.4453C94.9535 29.612 94.6696 29.8516 94.43 30.1641C94.1957 30.4714 94.0134 30.8385 93.8832 31.2656C93.7582 31.6875 93.6957 32.1562 93.6957 32.6719V33.0078C93.6957 33.4766 93.7634 33.9141 93.8988 34.3203C94.0394 34.7214 94.2373 35.0755 94.4925 35.3828C94.7529 35.6901 95.0602 35.9297 95.4144 36.1016C95.7686 36.2734 96.1592 36.3594 96.5863 36.3594C97.0863 36.3594 97.529 36.2682 97.9144 36.0859C98.2998 35.8984 98.6462 35.6042 98.9535 35.2031L99.5394 35.6562C99.3571 35.9271 99.1279 36.1771 98.8519 36.4062C98.5811 36.6354 98.2556 36.8177 97.8753 36.9531C97.4951 37.0885 97.0524 37.1562 96.5472 37.1562ZM106.625 34.8438C106.625 34.6146 106.568 34.388 106.453 34.1641C106.339 33.9401 106.118 33.7344 105.789 33.5469C105.466 33.3594 104.99 33.2005 104.36 33.0703C103.891 32.9661 103.472 32.849 103.102 32.7188C102.737 32.5885 102.43 32.4323 102.18 32.25C101.93 32.0677 101.74 31.849 101.61 31.5938C101.48 31.3385 101.414 31.0365 101.414 30.6875C101.414 30.375 101.482 30.0807 101.618 29.8047C101.758 29.5234 101.956 29.2786 102.211 29.0703C102.472 28.8568 102.784 28.6901 103.149 28.5703C103.519 28.4505 103.933 28.3906 104.391 28.3906C105.042 28.3906 105.599 28.5026 106.063 28.7266C106.532 28.9453 106.888 29.2448 107.133 29.625C107.383 30.0052 107.508 30.4349 107.508 30.9141H106.578C106.578 30.6224 106.493 30.3464 106.321 30.0859C106.154 29.8255 105.907 29.612 105.578 29.4453C105.256 29.2786 104.86 29.1953 104.391 29.1953C103.907 29.1953 103.513 29.2682 103.211 29.4141C102.909 29.5599 102.688 29.7448 102.547 29.9688C102.412 30.1927 102.344 30.4245 102.344 30.6641C102.344 30.8516 102.373 31.0234 102.43 31.1797C102.493 31.3307 102.602 31.4714 102.758 31.6016C102.92 31.7318 103.149 31.8542 103.446 31.9688C103.743 32.0833 104.128 32.1953 104.602 32.3047C105.284 32.4557 105.841 32.6406 106.274 32.8594C106.711 33.0729 107.034 33.3385 107.243 33.6562C107.451 33.9688 107.555 34.349 107.555 34.7969C107.555 35.1458 107.482 35.4661 107.336 35.7578C107.19 36.0443 106.98 36.2917 106.703 36.5C106.433 36.7083 106.105 36.8698 105.719 36.9844C105.339 37.099 104.912 37.1562 104.438 37.1562C103.724 37.1562 103.12 37.0391 102.625 36.8047C102.136 36.5651 101.763 36.2526 101.508 35.8672C101.258 35.4766 101.133 35.0625 101.133 34.625H102.063C102.094 35.0625 102.232 35.4089 102.477 35.6641C102.722 35.9141 103.021 36.0911 103.375 36.1953C103.735 36.2995 104.089 36.3516 104.438 36.3516C104.917 36.3516 105.318 36.2812 105.641 36.1406C105.964 36 106.209 35.8151 106.375 35.5859C106.542 35.3568 106.625 35.1094 106.625 34.8438ZM110.594 30.1719V40.25H109.657V28.5469H110.532L110.594 30.1719ZM116.469 32.6953V32.8594C116.469 33.4896 116.396 34.0677 116.25 34.5938C116.105 35.1198 115.894 35.5755 115.618 35.9609C115.347 36.3411 115.011 36.6354 114.61 36.8438C114.209 37.0521 113.753 37.1562 113.243 37.1562C112.737 37.1562 112.287 37.0781 111.891 36.9219C111.495 36.7656 111.154 36.5443 110.868 36.2578C110.586 35.9661 110.36 35.6276 110.188 35.2422C110.021 34.8516 109.904 34.4245 109.836 33.9609V31.7969C109.914 31.2865 110.042 30.8229 110.219 30.4062C110.396 29.9896 110.623 29.6302 110.899 29.3281C111.18 29.026 111.513 28.7943 111.899 28.6328C112.284 28.4714 112.724 28.3906 113.219 28.3906C113.735 28.3906 114.193 28.4922 114.594 28.6953C115 28.8932 115.341 29.1823 115.618 29.5625C115.899 29.9375 116.11 30.3906 116.25 30.9219C116.396 31.4479 116.469 32.0391 116.469 32.6953ZM115.532 32.8594V32.6953C115.532 32.2005 115.48 31.7422 115.375 31.3203C115.276 30.8984 115.123 30.5312 114.914 30.2188C114.711 29.901 114.451 29.6536 114.133 29.4766C113.821 29.2995 113.448 29.2109 113.016 29.2109C112.568 29.2109 112.185 29.2865 111.868 29.4375C111.555 29.5833 111.295 29.7786 111.086 30.0234C110.878 30.263 110.714 30.526 110.594 30.8125C110.474 31.099 110.386 31.3802 110.328 31.6562V34.1484C110.427 34.5443 110.586 34.9115 110.805 35.25C111.024 35.5833 111.315 35.8516 111.68 36.0547C112.05 36.2526 112.5 36.3516 113.032 36.3516C113.459 36.3516 113.828 36.263 114.141 36.0859C114.453 35.9089 114.711 35.6615 114.914 35.3438C115.123 35.026 115.276 34.6562 115.375 34.2344C115.48 33.8125 115.532 33.3542 115.532 32.8594ZM118.032 32.9062V32.6484C118.032 32.0339 118.12 31.4661 118.297 30.9453C118.474 30.4245 118.727 29.974 119.055 29.5938C119.388 29.2135 119.787 28.9193 120.25 28.7109C120.714 28.4974 121.23 28.3906 121.797 28.3906C122.37 28.3906 122.888 28.4974 123.352 28.7109C123.815 28.9193 124.214 29.2135 124.547 29.5938C124.881 29.974 125.136 30.4245 125.313 30.9453C125.49 31.4661 125.578 32.0339 125.578 32.6484V32.9062C125.578 33.5208 125.49 34.0885 125.313 34.6094C125.136 35.125 124.881 35.5729 124.547 35.9531C124.219 36.3333 123.823 36.6302 123.36 36.8438C122.896 37.0521 122.381 37.1562 121.813 37.1562C121.24 37.1562 120.722 37.0521 120.258 36.8438C119.795 36.6302 119.396 36.3333 119.063 35.9531C118.73 35.5729 118.474 35.125 118.297 34.6094C118.12 34.0885 118.032 33.5208 118.032 32.9062ZM118.961 32.6484V32.9062C118.961 33.3698 119.024 33.8099 119.149 34.2266C119.274 34.638 119.456 35.0052 119.696 35.3281C119.935 35.6458 120.232 35.8958 120.586 36.0781C120.94 36.2604 121.349 36.3516 121.813 36.3516C122.271 36.3516 122.675 36.2604 123.024 36.0781C123.378 35.8958 123.675 35.6458 123.914 35.3281C124.154 35.0052 124.334 34.638 124.453 34.2266C124.578 33.8099 124.641 33.3698 124.641 32.9062V32.6484C124.641 32.1901 124.578 31.7552 124.453 31.3438C124.334 30.9323 124.151 30.5651 123.907 30.2422C123.667 29.9193 123.37 29.6641 123.016 29.4766C122.662 29.2891 122.256 29.1953 121.797 29.1953C121.339 29.1953 120.933 29.2891 120.578 29.4766C120.23 29.6641 119.933 29.9193 119.688 30.2422C119.448 30.5651 119.266 30.9323 119.141 31.3438C119.021 31.7552 118.961 32.1901 118.961 32.6484ZM128.446 30.3516V37H127.516V28.5469H128.407L128.446 30.3516ZM128.235 32.25L127.821 32.0156C127.852 31.5156 127.953 31.0469 128.125 30.6094C128.297 30.1719 128.529 29.7865 128.821 29.4531C129.118 29.1198 129.464 28.8594 129.86 28.6719C130.261 28.4844 130.703 28.3906 131.188 28.3906C131.61 28.3906 131.987 28.4479 132.321 28.5625C132.654 28.6771 132.938 28.8594 133.172 29.1094C133.407 29.3594 133.584 29.6797 133.703 30.0703C133.828 30.4609 133.891 30.9375 133.891 31.5V37H132.953V31.4922C132.953 30.9089 132.873 30.4531 132.711 30.125C132.55 29.7917 132.321 29.5547 132.024 29.4141C131.727 29.2734 131.375 29.2031 130.969 29.2031C130.521 29.2031 130.128 29.3021 129.789 29.5C129.456 29.6927 129.175 29.9453 128.946 30.2578C128.722 30.5651 128.55 30.8958 128.43 31.25C128.31 31.599 128.245 31.9323 128.235 32.25ZM141.805 35.3594V25H142.743V37H141.868L141.805 35.3594ZM135.938 32.8594V32.6953C135.938 32.0391 136.013 31.4479 136.164 30.9219C136.315 30.3906 136.532 29.9375 136.813 29.5625C137.099 29.1823 137.443 28.8932 137.844 28.6953C138.245 28.4922 138.698 28.3906 139.203 28.3906C139.698 28.3906 140.136 28.4714 140.516 28.6328C140.896 28.7943 141.222 29.026 141.493 29.3281C141.769 29.6302 141.99 29.9896 142.157 30.4062C142.328 30.8229 142.453 31.2865 142.532 31.7969V33.8828C142.469 34.362 142.355 34.8021 142.188 35.2031C142.021 35.599 141.8 35.9453 141.524 36.2422C141.248 36.5339 140.914 36.7604 140.524 36.9219C140.138 37.0781 139.693 37.1562 139.188 37.1562C138.688 37.1562 138.237 37.0521 137.836 36.8438C137.435 36.6354 137.094 36.3411 136.813 35.9609C136.532 35.5755 136.315 35.1198 136.164 34.5938C136.013 34.0677 135.938 33.4896 135.938 32.8594ZM136.875 32.6953V32.8594C136.875 33.3542 136.925 33.8125 137.024 34.2344C137.123 34.6562 137.274 35.0234 137.477 35.3359C137.68 35.6484 137.938 35.8932 138.25 36.0703C138.563 36.2474 138.933 36.3359 139.36 36.3359C139.896 36.3359 140.347 36.2344 140.711 36.0312C141.076 35.8229 141.368 35.5495 141.586 35.2109C141.805 34.8672 141.964 34.4922 142.063 34.0859V31.6562C142 31.3802 141.909 31.099 141.789 30.8125C141.67 30.526 141.506 30.263 141.297 30.0234C141.094 29.7786 140.834 29.5833 140.516 29.4375C140.203 29.2865 139.823 29.2109 139.375 29.2109C138.943 29.2109 138.571 29.2995 138.258 29.4766C137.946 29.6536 137.685 29.901 137.477 30.2188C137.274 30.5312 137.123 30.8984 137.024 31.3203C136.925 31.7422 136.875 32.2005 136.875 32.6953ZM152.305 28.5469V29.3125H148.071V28.5469H152.305ZM149.625 26.375H150.555V34.9453C150.555 35.3359 150.607 35.6302 150.711 35.8281C150.815 36.026 150.951 36.1589 151.118 36.2266C151.284 36.2943 151.464 36.3281 151.657 36.3281C151.797 36.3281 151.933 36.3203 152.063 36.3047C152.193 36.2839 152.31 36.263 152.414 36.2422L152.453 37.0312C152.339 37.0677 152.19 37.0964 152.008 37.1172C151.826 37.1432 151.644 37.1562 151.461 37.1562C151.102 37.1562 150.784 37.0911 150.508 36.9609C150.232 36.8255 150.016 36.5964 149.86 36.2734C149.703 35.9453 149.625 35.5 149.625 34.9375V26.375ZM153.594 32.9062V32.6484C153.594 32.0339 153.683 31.4661 153.86 30.9453C154.037 30.4245 154.289 29.974 154.618 29.5938C154.951 29.2135 155.349 28.9193 155.813 28.7109C156.276 28.4974 156.792 28.3906 157.36 28.3906C157.933 28.3906 158.451 28.4974 158.914 28.7109C159.378 28.9193 159.776 29.2135 160.11 29.5938C160.443 29.974 160.698 30.4245 160.875 30.9453C161.052 31.4661 161.141 32.0339 161.141 32.6484V32.9062C161.141 33.5208 161.052 34.0885 160.875 34.6094C160.698 35.125 160.443 35.5729 160.11 35.9531C159.782 36.3333 159.386 36.6302 158.922 36.8438C158.459 37.0521 157.943 37.1562 157.375 37.1562C156.802 37.1562 156.284 37.0521 155.821 36.8438C155.357 36.6302 154.959 36.3333 154.625 35.9531C154.292 35.5729 154.037 35.125 153.86 34.6094C153.683 34.0885 153.594 33.5208 153.594 32.9062ZM154.524 32.6484V32.9062C154.524 33.3698 154.586 33.8099 154.711 34.2266C154.836 34.638 155.019 35.0052 155.258 35.3281C155.498 35.6458 155.795 35.8958 156.149 36.0781C156.503 36.2604 156.912 36.3516 157.375 36.3516C157.834 36.3516 158.237 36.2604 158.586 36.0781C158.94 35.8958 159.237 35.6458 159.477 35.3281C159.716 35.0052 159.896 34.638 160.016 34.2266C160.141 33.8099 160.203 33.3698 160.203 32.9062V32.6484C160.203 32.1901 160.141 31.7552 160.016 31.3438C159.896 30.9323 159.714 30.5651 159.469 30.2422C159.23 29.9193 158.933 29.6641 158.578 29.4766C158.224 29.2891 157.818 29.1953 157.36 29.1953C156.901 29.1953 156.495 29.2891 156.141 29.4766C155.792 29.6641 155.495 29.9193 155.25 30.2422C155.011 30.5651 154.828 30.9323 154.703 31.3438C154.584 31.7552 154.524 32.1901 154.524 32.6484ZM170.18 28.5469V29.3125H165.946V28.5469H170.18ZM167.5 26.375H168.43V34.9453C168.43 35.3359 168.482 35.6302 168.586 35.8281C168.69 36.026 168.826 36.1589 168.993 36.2266C169.159 36.2943 169.339 36.3281 169.532 36.3281C169.672 36.3281 169.808 36.3203 169.938 36.3047C170.068 36.2839 170.185 36.263 170.289 36.2422L170.328 37.0312C170.214 37.0677 170.065 37.0964 169.883 37.1172C169.701 37.1432 169.519 37.1562 169.336 37.1562C168.977 37.1562 168.659 37.0911 168.383 36.9609C168.107 36.8255 167.891 36.5964 167.735 36.2734C167.578 35.9453 167.5 35.5 167.5 34.9375V26.375ZM174.485 35.0234L176.524 28.5469H177.18L176.789 30.2891L174.657 37H174L174.485 35.0234ZM172.368 28.5469L174.157 35.0625L174.539 37H173.86L171.407 28.5469H172.368ZM179.719 35.0391L181.461 28.5469H182.422L179.969 37H179.297L179.719 35.0391ZM177.313 28.5469L179.321 34.9688L179.828 37H179.172L176.993 30.2812L176.625 28.5469H177.313ZM183.703 32.9062V32.6484C183.703 32.0339 183.792 31.4661 183.969 30.9453C184.146 30.4245 184.399 29.974 184.727 29.5938C185.06 29.2135 185.459 28.9193 185.922 28.7109C186.386 28.4974 186.901 28.3906 187.469 28.3906C188.042 28.3906 188.56 28.4974 189.024 28.7109C189.487 28.9193 189.886 29.2135 190.219 29.5938C190.552 29.974 190.808 30.4245 190.985 30.9453C191.162 31.4661 191.25 32.0339 191.25 32.6484V32.9062C191.25 33.5208 191.162 34.0885 190.985 34.6094C190.808 35.125 190.552 35.5729 190.219 35.9531C189.891 36.3333 189.495 36.6302 189.032 36.8438C188.568 37.0521 188.052 37.1562 187.485 37.1562C186.912 37.1562 186.394 37.0521 185.93 36.8438C185.466 36.6302 185.068 36.3333 184.735 35.9531C184.401 35.5729 184.146 35.125 183.969 34.6094C183.792 34.0885 183.703 33.5208 183.703 32.9062ZM184.633 32.6484V32.9062C184.633 33.3698 184.696 33.8099 184.821 34.2266C184.946 34.638 185.128 35.0052 185.368 35.3281C185.607 35.6458 185.904 35.8958 186.258 36.0781C186.612 36.2604 187.021 36.3516 187.485 36.3516C187.943 36.3516 188.347 36.2604 188.696 36.0781C189.05 35.8958 189.347 35.6458 189.586 35.3281C189.826 35.0052 190.006 34.638 190.125 34.2266C190.25 33.8099 190.313 33.3698 190.313 32.9062V32.6484C190.313 32.1901 190.25 31.7552 190.125 31.3438C190.006 30.9323 189.823 30.5651 189.578 30.2422C189.339 29.9193 189.042 29.6641 188.688 29.4766C188.334 29.2891 187.927 29.1953 187.469 29.1953C187.011 29.1953 186.605 29.2891 186.25 29.4766C185.901 29.6641 185.605 29.9193 185.36 30.2422C185.12 30.5651 184.938 30.9323 184.813 31.3438C184.693 31.7552 184.633 32.1901 184.633 32.6484ZM35.0785 51.8438C35.0785 51.6146 35.0212 51.388 34.9066 51.1641C34.792 50.9401 34.5707 50.7344 34.2425 50.5469C33.9196 50.3594 33.4431 50.2005 32.8128 50.0703C32.3441 49.9661 31.9248 49.849 31.555 49.7188C31.1904 49.5885 30.8832 49.4323 30.6332 49.25C30.3832 49.0677 30.1931 48.849 30.0628 48.5938C29.9326 48.3385 29.8675 48.0365 29.8675 47.6875C29.8675 47.375 29.9352 47.0807 30.0707 46.8047C30.2113 46.5234 30.4092 46.2786 30.6644 46.0703C30.9248 45.8568 31.2373 45.6901 31.6019 45.5703C31.9717 45.4505 32.3858 45.3906 32.8441 45.3906C33.4951 45.3906 34.0524 45.5026 34.516 45.7266C34.9847 45.9453 35.3415 46.2448 35.5863 46.625C35.8363 47.0052 35.9613 47.4349 35.9613 47.9141H35.0316C35.0316 47.6224 34.9457 47.3464 34.7738 47.0859C34.6071 46.8255 34.3597 46.612 34.0316 46.4453C33.7087 46.2786 33.3128 46.1953 32.8441 46.1953C32.3597 46.1953 31.9665 46.2682 31.6644 46.4141C31.3623 46.5599 31.141 46.7448 31.0003 46.9688C30.8649 47.1927 30.7972 47.4245 30.7972 47.6641C30.7972 47.8516 30.8259 48.0234 30.8832 48.1797C30.9457 48.3307 31.055 48.4714 31.2113 48.6016C31.3727 48.7318 31.6019 48.8542 31.8988 48.9688C32.1957 49.0833 32.5811 49.1953 33.055 49.3047C33.7373 49.4557 34.2946 49.6406 34.7269 49.8594C35.1644 50.0729 35.4873 50.3385 35.6957 50.6562C35.904 50.9688 36.0082 51.349 36.0082 51.7969C36.0082 52.1458 35.9352 52.4661 35.7894 52.7578C35.6436 53.0443 35.4326 53.2917 35.1566 53.5C34.8858 53.7083 34.5576 53.8698 34.1722 53.9844C33.792 54.099 33.3649 54.1562 32.891 54.1562C32.1774 54.1562 31.5733 54.0391 31.0785 53.8047C30.5889 53.5651 30.2165 53.2526 29.9613 52.8672C29.7113 52.4766 29.5863 52.0625 29.5863 51.625H30.516C30.5472 52.0625 30.6852 52.4089 30.93 52.6641C31.1748 52.9141 31.4743 53.0911 31.8285 53.1953C32.1878 53.2995 32.542 53.3516 32.891 53.3516C33.3701 53.3516 33.7712 53.2812 34.0941 53.1406C34.417 53 34.6618 52.8151 34.8285 52.5859C34.9951 52.3568 35.0785 52.1094 35.0785 51.8438ZM39.1644 45.5469V54H38.2347V45.5469H39.1644ZM38.0707 43.1016C38.0707 42.9245 38.1253 42.776 38.2347 42.6562C38.3493 42.5312 38.5056 42.4688 38.7035 42.4688C38.9014 42.4688 39.0576 42.5312 39.1722 42.6562C39.292 42.776 39.3519 42.9245 39.3519 43.1016C39.3519 43.2734 39.292 43.4219 39.1722 43.5469C39.0576 43.6667 38.9014 43.7266 38.7035 43.7266C38.5056 43.7266 38.3493 43.6667 38.2347 43.5469C38.1253 43.4219 38.0707 43.2734 38.0707 43.1016ZM42.6019 47.2969V54H41.6644V45.5469H42.5628L42.6019 47.2969ZM42.43 49.25L41.9769 49.0156C42.0082 48.5156 42.1019 48.0469 42.2582 47.6094C42.4196 47.1719 42.6436 46.7865 42.93 46.4531C43.2165 46.1198 43.5602 45.8594 43.9613 45.6719C44.3623 45.4844 44.8181 45.3906 45.3285 45.3906C45.7399 45.3906 46.1123 45.4479 46.4457 45.5625C46.7842 45.6719 47.0707 45.8464 47.305 46.0859C47.5446 46.3203 47.7295 46.6276 47.8597 47.0078C47.9899 47.388 48.055 47.8438 48.055 48.375V54H47.1253V48.4062C47.1253 47.8438 47.0368 47.4036 46.8597 47.0859C46.6878 46.7682 46.4457 46.5417 46.1332 46.4062C45.8259 46.2708 45.4691 46.2031 45.0628 46.2031C44.5837 46.2031 44.1774 46.3021 43.8441 46.5C43.516 46.6927 43.2477 46.9453 43.0394 47.2578C42.8363 47.5651 42.6852 47.8958 42.5863 48.25C42.4873 48.599 42.4352 48.9323 42.43 49.25ZM48.0472 48.5156L47.4222 48.5312C47.4483 48.1198 47.542 47.7266 47.7035 47.3516C47.8701 46.9766 48.0967 46.6432 48.3832 46.3516C48.6696 46.0547 49.0108 45.8203 49.4066 45.6484C49.8076 45.4766 50.2582 45.3906 50.7582 45.3906C51.1957 45.3906 51.5863 45.4505 51.93 45.5703C52.2738 45.6849 52.5628 45.8698 52.7972 46.125C53.0368 46.375 53.2191 46.6953 53.3441 47.0859C53.4691 47.4766 53.5316 47.9453 53.5316 48.4922V54H52.5941V48.4844C52.5941 47.8854 52.5056 47.4219 52.3285 47.0938C52.1566 46.7604 51.917 46.5286 51.6097 46.3984C51.3024 46.2682 50.9431 46.2031 50.5316 46.2031C50.1253 46.2083 49.7686 46.2839 49.4613 46.4297C49.154 46.5703 48.8962 46.7578 48.6878 46.9922C48.4847 47.2214 48.3285 47.4688 48.2191 47.7344C48.1149 48 48.0576 48.2604 48.0472 48.5156ZM56.8285 47.1719V57.25H55.891V45.5469H56.766L56.8285 47.1719ZM62.7035 49.6953V49.8594C62.7035 50.4896 62.6306 51.0677 62.4847 51.5938C62.3389 52.1198 62.1279 52.5755 61.8519 52.9609C61.5811 53.3411 61.2451 53.6354 60.8441 53.8438C60.4431 54.0521 59.9873 54.1562 59.4769 54.1562C58.9717 54.1562 58.5212 54.0781 58.1253 53.9219C57.7295 53.7656 57.3884 53.5443 57.1019 53.2578C56.8207 52.9661 56.5941 52.6276 56.4222 52.2422C56.2556 51.8516 56.1384 51.4245 56.0707 50.9609V48.7969C56.1488 48.2865 56.2764 47.8229 56.4535 47.4062C56.6306 46.9896 56.8571 46.6302 57.1332 46.3281C57.4144 46.026 57.7477 45.7943 58.1332 45.6328C58.5186 45.4714 58.9587 45.3906 59.4535 45.3906C59.9691 45.3906 60.4274 45.4922 60.8285 45.6953C61.2347 45.8932 61.5759 46.1823 61.8519 46.5625C62.1332 46.9375 62.3441 47.3906 62.4847 47.9219C62.6306 48.4479 62.7035 49.0391 62.7035 49.6953ZM61.766 49.8594V49.6953C61.766 49.2005 61.7139 48.7422 61.6097 48.3203C61.5108 47.8984 61.3571 47.5312 61.1488 47.2188C60.9457 46.901 60.6852 46.6536 60.3675 46.4766C60.055 46.2995 59.6826 46.2109 59.2503 46.2109C58.8024 46.2109 58.4196 46.2865 58.1019 46.4375C57.7894 46.5833 57.529 46.7786 57.3207 47.0234C57.1123 47.263 56.9483 47.526 56.8285 47.8125C56.7087 48.099 56.6201 48.3802 56.5628 48.6562V51.1484C56.6618 51.5443 56.8207 51.9115 57.0394 52.25C57.2582 52.5833 57.5498 52.8516 57.9144 53.0547C58.2842 53.2526 58.7347 53.3516 59.266 53.3516C59.6931 53.3516 60.0628 53.263 60.3753 53.0859C60.6878 52.9089 60.9457 52.6615 61.1488 52.3438C61.3571 52.026 61.5108 51.6562 61.6097 51.2344C61.7139 50.8125 61.766 50.3542 61.766 49.8594ZM65.8207 42V54H64.891V42H65.8207ZM71.641 54.1562C71.0889 54.1562 70.5811 54.0547 70.1175 53.8516C69.6592 53.6484 69.2582 53.362 68.9144 52.9922C68.5759 52.6224 68.3128 52.1849 68.1253 51.6797C67.9431 51.1693 67.8519 50.612 67.8519 50.0078V49.6719C67.8519 49.0208 67.9483 48.4323 68.141 47.9062C68.3337 47.3802 68.5993 46.9297 68.9378 46.5547C69.2764 46.1797 69.6618 45.8932 70.0941 45.6953C70.5316 45.4922 70.9899 45.3906 71.4691 45.3906C72.0056 45.3906 72.4821 45.487 72.8988 45.6797C73.3154 45.8672 73.6644 46.1354 73.9457 46.4844C74.2321 46.8281 74.4483 47.237 74.5941 47.7109C74.7399 48.1797 74.8128 48.6979 74.8128 49.2656V49.8359H68.4144V49.0391H73.8832V48.9297C73.8727 48.4557 73.7764 48.013 73.5941 47.6016C73.417 47.1849 73.1514 46.8464 72.7972 46.5859C72.4431 46.3255 72.0003 46.1953 71.4691 46.1953C71.0733 46.1953 70.7087 46.2786 70.3753 46.4453C70.0472 46.612 69.7634 46.8516 69.5238 47.1641C69.2894 47.4714 69.1071 47.8385 68.9769 48.2656C68.8519 48.6875 68.7894 49.1562 68.7894 49.6719V50.0078C68.7894 50.4766 68.8571 50.9141 68.9925 51.3203C69.1332 51.7214 69.3311 52.0755 69.5863 52.3828C69.8467 52.6901 70.154 52.9297 70.5082 53.1016C70.8623 53.2734 71.2529 53.3594 71.68 53.3594C72.18 53.3594 72.6227 53.2682 73.0082 53.0859C73.3936 52.8984 73.7399 52.6042 74.0472 52.2031L74.6332 52.6562C74.4509 52.9271 74.2217 53.1771 73.9457 53.4062C73.6748 53.6354 73.3493 53.8177 72.9691 53.9531C72.5889 54.0885 72.1462 54.1562 71.641 54.1562ZM86.055 57.25V47.1719L86.1175 45.5469H86.9847V57.25H86.055ZM80.1878 49.8594V49.6953C80.1878 49.0391 80.2608 48.4479 80.4066 47.9219C80.5524 47.3906 80.766 46.9375 81.0472 46.5625C81.3337 46.1823 81.6774 45.8932 82.0785 45.6953C82.4847 45.4922 82.9457 45.3906 83.4613 45.3906C83.9561 45.3906 84.3962 45.4714 84.7816 45.6328C85.167 45.7943 85.4977 46.026 85.7738 46.3281C86.055 46.6302 86.2816 46.9896 86.4535 47.4062C86.6253 47.8229 86.7503 48.2865 86.8285 48.7969V50.8828C86.766 51.362 86.6488 51.8021 86.4769 52.2031C86.3102 52.599 86.0863 52.9453 85.805 53.2422C85.5238 53.5339 85.1852 53.7604 84.7894 53.9219C84.3988 54.0781 83.9509 54.1562 83.4457 54.1562C82.9352 54.1562 82.4769 54.0521 82.0707 53.8438C81.6696 53.6354 81.3285 53.3411 81.0472 52.9609C80.7712 52.5755 80.5576 52.1198 80.4066 51.5938C80.2608 51.0677 80.1878 50.4896 80.1878 49.8594ZM81.1253 49.6953V49.8594C81.1253 50.3542 81.1748 50.8125 81.2738 51.2344C81.3779 51.6562 81.5316 52.026 81.7347 52.3438C81.9378 52.6615 82.1957 52.9089 82.5082 53.0859C82.8259 53.263 83.1957 53.3516 83.6175 53.3516C84.154 53.3516 84.6071 53.2474 84.9769 53.0391C85.3467 52.8307 85.641 52.5547 85.8597 52.2109C86.0837 51.8672 86.2451 51.4922 86.3441 51.0859V48.6562C86.292 48.3906 86.2035 48.1146 86.0785 47.8281C85.9535 47.5417 85.7842 47.276 85.5707 47.0312C85.3623 46.7812 85.0993 46.5807 84.7816 46.4297C84.4639 46.2734 84.0811 46.1953 83.6332 46.1953C83.2061 46.1953 82.8337 46.2865 82.516 46.4688C82.2035 46.6458 81.9431 46.8932 81.7347 47.2109C81.5316 47.5286 81.3779 47.8984 81.2738 48.3203C81.1748 48.7422 81.1253 49.2005 81.1253 49.6953ZM94.8988 52.0469V45.5469H95.8363V54H94.9378L94.8988 52.0469ZM95.0707 50.4844L95.555 50.4688C95.555 51 95.4925 51.4896 95.3675 51.9375C95.2425 52.3854 95.0472 52.776 94.7816 53.1094C94.516 53.4427 94.1722 53.7005 93.7503 53.8828C93.3285 54.0651 92.8207 54.1562 92.2269 54.1562C91.8154 54.1562 91.4378 54.099 91.0941 53.9844C90.7556 53.8646 90.4639 53.6771 90.2191 53.4219C89.9743 53.1667 89.7842 52.8359 89.6488 52.4297C89.5186 52.0234 89.4535 51.5312 89.4535 50.9531V45.5469H90.3832V50.9688C90.3832 51.4219 90.4326 51.7995 90.5316 52.1016C90.6358 52.4036 90.7764 52.6458 90.9535 52.8281C91.1358 53.0104 91.3441 53.1406 91.5785 53.2188C91.8128 53.2969 92.0654 53.3359 92.3363 53.3359C93.0238 53.3359 93.5654 53.2031 93.9613 52.9375C94.3623 52.6719 94.6462 52.3229 94.8128 51.8906C94.9847 51.4531 95.0707 50.9844 95.0707 50.4844ZM101.547 54.1562C100.995 54.1562 100.487 54.0547 100.024 53.8516C99.5654 53.6484 99.1644 53.362 98.8207 52.9922C98.4821 52.6224 98.2191 52.1849 98.0316 51.6797C97.8493 51.1693 97.7582 50.612 97.7582 50.0078V49.6719C97.7582 49.0208 97.8545 48.4323 98.0472 47.9062C98.2399 47.3802 98.5056 46.9297 98.8441 46.5547C99.1826 46.1797 99.5681 45.8932 100 45.6953C100.438 45.4922 100.896 45.3906 101.375 45.3906C101.912 45.3906 102.388 45.487 102.805 45.6797C103.222 45.8672 103.571 46.1354 103.852 46.4844C104.138 46.8281 104.355 47.237 104.5 47.7109C104.646 48.1797 104.719 48.6979 104.719 49.2656V49.8359H98.3207V49.0391H103.789V48.9297C103.779 48.4557 103.683 48.013 103.5 47.6016C103.323 47.1849 103.058 46.8464 102.703 46.5859C102.349 46.3255 101.907 46.1953 101.375 46.1953C100.98 46.1953 100.615 46.2786 100.282 46.4453C99.9535 46.612 99.6696 46.8516 99.43 47.1641C99.1957 47.4714 99.0134 47.8385 98.8832 48.2656C98.7582 48.6875 98.6957 49.1562 98.6957 49.6719V50.0078C98.6957 50.4766 98.7634 50.9141 98.8988 51.3203C99.0394 51.7214 99.2373 52.0755 99.4925 52.3828C99.7529 52.6901 100.06 52.9297 100.414 53.1016C100.769 53.2734 101.159 53.3594 101.586 53.3594C102.086 53.3594 102.529 53.2682 102.914 53.0859C103.3 52.8984 103.646 52.6042 103.953 52.2031L104.539 52.6562C104.357 52.9271 104.128 53.1771 103.852 53.4062C103.581 53.6354 103.256 53.8177 102.875 53.9531C102.495 54.0885 102.052 54.1562 101.547 54.1562ZM111.625 51.8438C111.625 51.6146 111.568 51.388 111.453 51.1641C111.339 50.9401 111.118 50.7344 110.789 50.5469C110.466 50.3594 109.99 50.2005 109.36 50.0703C108.891 49.9661 108.472 49.849 108.102 49.7188C107.737 49.5885 107.43 49.4323 107.18 49.25C106.93 49.0677 106.74 48.849 106.61 48.5938C106.48 48.3385 106.414 48.0365 106.414 47.6875C106.414 47.375 106.482 47.0807 106.618 46.8047C106.758 46.5234 106.956 46.2786 107.211 46.0703C107.472 45.8568 107.784 45.6901 108.149 45.5703C108.519 45.4505 108.933 45.3906 109.391 45.3906C110.042 45.3906 110.599 45.5026 111.063 45.7266C111.532 45.9453 111.888 46.2448 112.133 46.625C112.383 47.0052 112.508 47.4349 112.508 47.9141H111.578C111.578 47.6224 111.493 47.3464 111.321 47.0859C111.154 46.8255 110.907 46.612 110.578 46.4453C110.256 46.2786 109.86 46.1953 109.391 46.1953C108.907 46.1953 108.513 46.2682 108.211 46.4141C107.909 46.5599 107.688 46.7448 107.547 46.9688C107.412 47.1927 107.344 47.4245 107.344 47.6641C107.344 47.8516 107.373 48.0234 107.43 48.1797C107.493 48.3307 107.602 48.4714 107.758 48.6016C107.92 48.7318 108.149 48.8542 108.446 48.9688C108.743 49.0833 109.128 49.1953 109.602 49.3047C110.284 49.4557 110.841 49.6406 111.274 49.8594C111.711 50.0729 112.034 50.3385 112.243 50.6562C112.451 50.9688 112.555 51.349 112.555 51.7969C112.555 52.1458 112.482 52.4661 112.336 52.7578C112.19 53.0443 111.98 53.2917 111.703 53.5C111.433 53.7083 111.105 53.8698 110.719 53.9844C110.339 54.099 109.912 54.1562 109.438 54.1562C108.724 54.1562 108.12 54.0391 107.625 53.8047C107.136 53.5651 106.763 53.2526 106.508 52.8672C106.258 52.4766 106.133 52.0625 106.133 51.625H107.063C107.094 52.0625 107.232 52.4089 107.477 52.6641C107.722 52.9141 108.021 53.0911 108.375 53.1953C108.735 53.2995 109.089 53.3516 109.438 53.3516C109.917 53.3516 110.318 53.2812 110.641 53.1406C110.964 53 111.209 52.8151 111.375 52.5859C111.542 52.3568 111.625 52.1094 111.625 51.8438ZM117.868 45.5469V46.3125H113.633V45.5469H117.868ZM115.188 43.375H116.118V51.9453C116.118 52.3359 116.17 52.6302 116.274 52.8281C116.378 53.026 116.513 53.1589 116.68 53.2266C116.847 53.2943 117.026 53.3281 117.219 53.3281C117.36 53.3281 117.495 53.3203 117.625 53.3047C117.756 53.2839 117.873 53.263 117.977 53.2422L118.016 54.0312C117.901 54.0677 117.753 54.0964 117.571 54.1172C117.388 54.1432 117.206 54.1562 117.024 54.1562C116.664 54.1562 116.347 54.0911 116.071 53.9609C115.795 53.8255 115.578 53.5964 115.422 53.2734C115.266 52.9453 115.188 52.5 115.188 51.9375V43.375ZM120.868 45.5469V54H119.938V45.5469H120.868ZM119.774 43.1016C119.774 42.9245 119.828 42.776 119.938 42.6562C120.052 42.5312 120.209 42.4688 120.407 42.4688C120.605 42.4688 120.761 42.5312 120.875 42.6562C120.995 42.776 121.055 42.9245 121.055 43.1016C121.055 43.2734 120.995 43.4219 120.875 43.5469C120.761 43.6667 120.605 43.7266 120.407 43.7266C120.209 43.7266 120.052 43.6667 119.938 43.5469C119.828 43.4219 119.774 43.2734 119.774 43.1016ZM122.907 49.9062V49.6484C122.907 49.0339 122.995 48.4661 123.172 47.9453C123.349 47.4245 123.602 46.974 123.93 46.5938C124.263 46.2135 124.662 45.9193 125.125 45.7109C125.589 45.4974 126.105 45.3906 126.672 45.3906C127.245 45.3906 127.763 45.4974 128.227 45.7109C128.69 45.9193 129.089 46.2135 129.422 46.5938C129.756 46.974 130.011 47.4245 130.188 47.9453C130.365 48.4661 130.453 49.0339 130.453 49.6484V49.9062C130.453 50.5208 130.365 51.0885 130.188 51.6094C130.011 52.125 129.756 52.5729 129.422 52.9531C129.094 53.3333 128.698 53.6302 128.235 53.8438C127.771 54.0521 127.256 54.1562 126.688 54.1562C126.115 54.1562 125.597 54.0521 125.133 53.8438C124.67 53.6302 124.271 53.3333 123.938 52.9531C123.605 52.5729 123.349 52.125 123.172 51.6094C122.995 51.0885 122.907 50.5208 122.907 49.9062ZM123.836 49.6484V49.9062C123.836 50.3698 123.899 50.8099 124.024 51.2266C124.149 51.638 124.331 52.0052 124.571 52.3281C124.81 52.6458 125.107 52.8958 125.461 53.0781C125.815 53.2604 126.224 53.3516 126.688 53.3516C127.146 53.3516 127.55 53.2604 127.899 53.0781C128.253 52.8958 128.55 52.6458 128.789 52.3281C129.029 52.0052 129.209 51.638 129.328 51.2266C129.453 50.8099 129.516 50.3698 129.516 49.9062V49.6484C129.516 49.1901 129.453 48.7552 129.328 48.3438C129.209 47.9323 129.026 47.5651 128.782 47.2422C128.542 46.9193 128.245 46.6641 127.891 46.4766C127.537 46.2891 127.131 46.1953 126.672 46.1953C126.214 46.1953 125.808 46.2891 125.453 46.4766C125.105 46.6641 124.808 46.9193 124.563 47.2422C124.323 47.5651 124.141 47.9323 124.016 48.3438C123.896 48.7552 123.836 49.1901 123.836 49.6484ZM133.321 47.3516V54H132.391V45.5469H133.282L133.321 47.3516ZM133.11 49.25L132.696 49.0156C132.727 48.5156 132.828 48.0469 133 47.6094C133.172 47.1719 133.404 46.7865 133.696 46.4531C133.993 46.1198 134.339 45.8594 134.735 45.6719C135.136 45.4844 135.578 45.3906 136.063 45.3906C136.485 45.3906 136.862 45.4479 137.196 45.5625C137.529 45.6771 137.813 45.8594 138.047 46.1094C138.282 46.3594 138.459 46.6797 138.578 47.0703C138.703 47.4609 138.766 47.9375 138.766 48.5V54H137.828V48.4922C137.828 47.9089 137.748 47.4531 137.586 47.125C137.425 46.7917 137.196 46.5547 136.899 46.4141C136.602 46.2734 136.25 46.2031 135.844 46.2031C135.396 46.2031 135.003 46.3021 134.664 46.5C134.331 46.6927 134.05 46.9453 133.821 47.2578C133.597 47.5651 133.425 47.8958 133.305 48.25C133.185 48.599 133.12 48.9323 133.11 49.25ZM146.25 51.8438C146.25 51.6146 146.193 51.388 146.078 51.1641C145.964 50.9401 145.743 50.7344 145.414 50.5469C145.091 50.3594 144.615 50.2005 143.985 50.0703C143.516 49.9661 143.097 49.849 142.727 49.7188C142.362 49.5885 142.055 49.4323 141.805 49.25C141.555 49.0677 141.365 48.849 141.235 48.5938C141.105 48.3385 141.039 48.0365 141.039 47.6875C141.039 47.375 141.107 47.0807 141.243 46.8047C141.383 46.5234 141.581 46.2786 141.836 46.0703C142.097 45.8568 142.409 45.6901 142.774 45.5703C143.144 45.4505 143.558 45.3906 144.016 45.3906C144.667 45.3906 145.224 45.5026 145.688 45.7266C146.157 45.9453 146.513 46.2448 146.758 46.625C147.008 47.0052 147.133 47.4349 147.133 47.9141H146.203C146.203 47.6224 146.118 47.3464 145.946 47.0859C145.779 46.8255 145.532 46.612 145.203 46.4453C144.881 46.2786 144.485 46.1953 144.016 46.1953C143.532 46.1953 143.138 46.2682 142.836 46.4141C142.534 46.5599 142.313 46.7448 142.172 46.9688C142.037 47.1927 141.969 47.4245 141.969 47.6641C141.969 47.8516 141.998 48.0234 142.055 48.1797C142.118 48.3307 142.227 48.4714 142.383 48.6016C142.545 48.7318 142.774 48.8542 143.071 48.9688C143.368 49.0833 143.753 49.1953 144.227 49.3047C144.909 49.4557 145.466 49.6406 145.899 49.8594C146.336 50.0729 146.659 50.3385 146.868 50.6562C147.076 50.9688 147.18 51.349 147.18 51.7969C147.18 52.1458 147.107 52.4661 146.961 52.7578C146.815 53.0443 146.605 53.2917 146.328 53.5C146.058 53.7083 145.73 53.8698 145.344 53.9844C144.964 54.099 144.537 54.1562 144.063 54.1562C143.349 54.1562 142.745 54.0391 142.25 53.8047C141.761 53.5651 141.388 53.2526 141.133 52.8672C140.883 52.4766 140.758 52.0625 140.758 51.625H141.688C141.719 52.0625 141.857 52.4089 142.102 52.6641C142.347 52.9141 142.646 53.0911 143 53.1953C143.36 53.2995 143.714 53.3516 144.063 53.3516C144.542 53.3516 144.943 53.2812 145.266 53.1406C145.589 53 145.834 52.8151 146 52.5859C146.167 52.3568 146.25 52.1094 146.25 51.8438ZM156.399 45.5469V46.3125H152.164V45.5469H156.399ZM153.719 43.375H154.649V51.9453C154.649 52.3359 154.701 52.6302 154.805 52.8281C154.909 53.026 155.045 53.1589 155.211 53.2266C155.378 53.2943 155.558 53.3281 155.75 53.3281C155.891 53.3281 156.026 53.3203 156.157 53.3047C156.287 53.2839 156.404 53.263 156.508 53.2422L156.547 54.0312C156.433 54.0677 156.284 54.0964 156.102 54.1172C155.92 54.1432 155.737 54.1562 155.555 54.1562C155.196 54.1562 154.878 54.0911 154.602 53.9609C154.326 53.8255 154.11 53.5964 153.953 53.2734C153.797 52.9453 153.719 52.5 153.719 51.9375V43.375ZM157.688 49.9062V49.6484C157.688 49.0339 157.776 48.4661 157.953 47.9453C158.131 47.4245 158.383 46.974 158.711 46.5938C159.045 46.2135 159.443 45.9193 159.907 45.7109C160.37 45.4974 160.886 45.3906 161.453 45.3906C162.026 45.3906 162.545 45.4974 163.008 45.7109C163.472 45.9193 163.87 46.2135 164.203 46.5938C164.537 46.974 164.792 47.4245 164.969 47.9453C165.146 48.4661 165.235 49.0339 165.235 49.6484V49.9062C165.235 50.5208 165.146 51.0885 164.969 51.6094C164.792 52.125 164.537 52.5729 164.203 52.9531C163.875 53.3333 163.48 53.6302 163.016 53.8438C162.552 54.0521 162.037 54.1562 161.469 54.1562C160.896 54.1562 160.378 54.0521 159.914 53.8438C159.451 53.6302 159.052 53.3333 158.719 52.9531C158.386 52.5729 158.131 52.125 157.953 51.6094C157.776 51.0885 157.688 50.5208 157.688 49.9062ZM158.618 49.6484V49.9062C158.618 50.3698 158.68 50.8099 158.805 51.2266C158.93 51.638 159.112 52.0052 159.352 52.3281C159.591 52.6458 159.888 52.8958 160.243 53.0781C160.597 53.2604 161.006 53.3516 161.469 53.3516C161.927 53.3516 162.331 53.2604 162.68 53.0781C163.034 52.8958 163.331 52.6458 163.571 52.3281C163.81 52.0052 163.99 51.638 164.11 51.2266C164.235 50.8099 164.297 50.3698 164.297 49.9062V49.6484C164.297 49.1901 164.235 48.7552 164.11 48.3438C163.99 47.9323 163.808 47.5651 163.563 47.2422C163.323 46.9193 163.026 46.6641 162.672 46.4766C162.318 46.2891 161.912 46.1953 161.453 46.1953C160.995 46.1953 160.589 46.2891 160.235 46.4766C159.886 46.6641 159.589 46.9193 159.344 47.2422C159.105 47.5651 158.922 47.9323 158.797 48.3438C158.677 48.7552 158.618 49.1901 158.618 49.6484ZM172.008 42V54H171.078V42H172.008ZM171.797 49.25L171.383 49.0156C171.414 48.5156 171.516 48.0469 171.688 47.6094C171.86 47.1719 172.091 46.7865 172.383 46.4531C172.68 46.1198 173.026 45.8594 173.422 45.6719C173.823 45.4844 174.266 45.3906 174.75 45.3906C175.172 45.3906 175.55 45.4479 175.883 45.5625C176.216 45.6771 176.5 45.8594 176.735 46.1094C176.969 46.3594 177.146 46.6797 177.266 47.0703C177.391 47.4609 177.453 47.9375 177.453 48.5V54H176.516V48.4922C176.516 47.9089 176.435 47.4531 176.274 47.125C176.112 46.7917 175.883 46.5547 175.586 46.4141C175.289 46.2734 174.938 46.2031 174.532 46.2031C174.084 46.2031 173.69 46.3021 173.352 46.5C173.019 46.6927 172.737 46.9453 172.508 47.2578C172.284 47.5651 172.112 47.8958 171.993 48.25C171.873 48.599 171.808 48.9323 171.797 49.25ZM183.125 54.1562C182.573 54.1562 182.065 54.0547 181.602 53.8516C181.144 53.6484 180.743 53.362 180.399 52.9922C180.06 52.6224 179.797 52.1849 179.61 51.6797C179.427 51.1693 179.336 50.612 179.336 50.0078V49.6719C179.336 49.0208 179.433 48.4323 179.625 47.9062C179.818 47.3802 180.084 46.9297 180.422 46.5547C180.761 46.1797 181.146 45.8932 181.578 45.6953C182.016 45.4922 182.474 45.3906 182.953 45.3906C183.49 45.3906 183.966 45.487 184.383 45.6797C184.8 45.8672 185.149 46.1354 185.43 46.4844C185.716 46.8281 185.933 47.237 186.078 47.7109C186.224 48.1797 186.297 48.6979 186.297 49.2656V49.8359H179.899V49.0391H185.368V48.9297C185.357 48.4557 185.261 48.013 185.078 47.6016C184.901 47.1849 184.636 46.8464 184.282 46.5859C183.927 46.3255 183.485 46.1953 182.953 46.1953C182.558 46.1953 182.193 46.2786 181.86 46.4453C181.532 46.612 181.248 46.8516 181.008 47.1641C180.774 47.4714 180.591 47.8385 180.461 48.2656C180.336 48.6875 180.274 49.1562 180.274 49.6719V50.0078C180.274 50.4766 180.341 50.9141 180.477 51.3203C180.618 51.7214 180.815 52.0755 181.071 52.3828C181.331 52.6901 181.638 52.9297 181.993 53.1016C182.347 53.2734 182.737 53.3594 183.164 53.3594C183.664 53.3594 184.107 53.2682 184.493 53.0859C184.878 52.8984 185.224 52.6042 185.532 52.2031L186.118 52.6562C185.935 52.9271 185.706 53.1771 185.43 53.4062C185.159 53.6354 184.834 53.8177 184.453 53.9531C184.073 54.0885 183.631 54.1562 183.125 54.1562ZM189.18 42V54H188.25V42H189.18ZM192.657 47.1719V57.25H191.719V45.5469H192.594L192.657 47.1719ZM198.532 49.6953V49.8594C198.532 50.4896 198.459 51.0677 198.313 51.5938C198.167 52.1198 197.956 52.5755 197.68 52.9609C197.409 53.3411 197.073 53.6354 196.672 53.8438C196.271 54.0521 195.815 54.1562 195.305 54.1562C194.8 54.1562 194.349 54.0781 193.953 53.9219C193.558 53.7656 193.216 53.5443 192.93 53.2578C192.649 52.9661 192.422 52.6276 192.25 52.2422C192.084 51.8516 191.966 51.4245 191.899 50.9609V48.7969C191.977 48.2865 192.105 47.8229 192.282 47.4062C192.459 46.9896 192.685 46.6302 192.961 46.3281C193.243 46.026 193.576 45.7943 193.961 45.6328C194.347 45.4714 194.787 45.3906 195.282 45.3906C195.797 45.3906 196.256 45.4922 196.657 45.6953C197.063 45.8932 197.404 46.1823 197.68 46.5625C197.961 46.9375 198.172 47.3906 198.313 47.9219C198.459 48.4479 198.532 49.0391 198.532 49.6953ZM197.594 49.8594V49.6953C197.594 49.2005 197.542 48.7422 197.438 48.3203C197.339 47.8984 197.185 47.5312 196.977 47.2188C196.774 46.901 196.513 46.6536 196.196 46.4766C195.883 46.2995 195.511 46.2109 195.078 46.2109C194.631 46.2109 194.248 46.2865 193.93 46.4375C193.618 46.5833 193.357 46.7786 193.149 47.0234C192.94 47.263 192.776 47.526 192.657 47.8125C192.537 48.099 192.448 48.3802 192.391 48.6562V51.1484C192.49 51.5443 192.649 51.9115 192.868 52.25C193.086 52.5833 193.378 52.8516 193.743 53.0547C194.112 53.2526 194.563 53.3516 195.094 53.3516C195.521 53.3516 195.891 53.263 196.203 53.0859C196.516 52.9089 196.774 52.6615 196.977 52.3438C197.185 52.026 197.339 51.6562 197.438 51.2344C197.542 50.8125 197.594 50.3542 197.594 49.8594ZM53.7425 69.0469V62.5469H54.68V71H53.7816L53.7425 69.0469ZM53.9144 67.4844L54.3988 67.4688C54.3988 68 54.3363 68.4896 54.2113 68.9375C54.0863 69.3854 53.891 69.776 53.6253 70.1094C53.3597 70.4427 53.016 70.7005 52.5941 70.8828C52.1722 71.0651 51.6644 71.1562 51.0707 71.1562C50.6592 71.1562 50.2816 71.099 49.9378 70.9844C49.5993 70.8646 49.3076 70.6771 49.0628 70.4219C48.8181 70.1667 48.6279 69.8359 48.4925 69.4297C48.3623 69.0234 48.2972 68.5312 48.2972 67.9531V62.5469H49.2269V67.9688C49.2269 68.4219 49.2764 68.7995 49.3753 69.1016C49.4795 69.4036 49.6201 69.6458 49.7972 69.8281C49.9795 70.0104 50.1878 70.1406 50.4222 70.2188C50.6566 70.2969 50.9092 70.3359 51.18 70.3359C51.8675 70.3359 52.4092 70.2031 52.805 69.9375C53.2061 69.6719 53.4899 69.3229 53.6566 68.8906C53.8285 68.4531 53.9144 67.9844 53.9144 67.4844ZM62.1878 68.8438C62.1878 68.6146 62.1306 68.388 62.016 68.1641C61.9014 67.9401 61.68 67.7344 61.3519 67.5469C61.029 67.3594 60.5524 67.2005 59.9222 67.0703C59.4535 66.9661 59.0342 66.849 58.6644 66.7188C58.2998 66.5885 57.9925 66.4323 57.7425 66.25C57.4925 66.0677 57.3024 65.849 57.1722 65.5938C57.042 65.3385 56.9769 65.0365 56.9769 64.6875C56.9769 64.375 57.0446 64.0807 57.18 63.8047C57.3207 63.5234 57.5186 63.2786 57.7738 63.0703C58.0342 62.8568 58.3467 62.6901 58.7113 62.5703C59.0811 62.4505 59.4951 62.3906 59.9535 62.3906C60.6045 62.3906 61.1618 62.5026 61.6253 62.7266C62.0941 62.9453 62.4509 63.2448 62.6957 63.625C62.9457 64.0052 63.0707 64.4349 63.0707 64.9141H62.141C62.141 64.6224 62.055 64.3464 61.8832 64.0859C61.7165 63.8255 61.4691 63.612 61.141 63.4453C60.8181 63.2786 60.4222 63.1953 59.9535 63.1953C59.4691 63.1953 59.0759 63.2682 58.7738 63.4141C58.4717 63.5599 58.2503 63.7448 58.1097 63.9688C57.9743 64.1927 57.9066 64.4245 57.9066 64.6641C57.9066 64.8516 57.9352 65.0234 57.9925 65.1797C58.055 65.3307 58.1644 65.4714 58.3207 65.6016C58.4821 65.7318 58.7113 65.8542 59.0082 65.9688C59.305 66.0833 59.6904 66.1953 60.1644 66.3047C60.8467 66.4557 61.404 66.6406 61.8363 66.8594C62.2738 67.0729 62.5967 67.3385 62.805 67.6562C63.0134 67.9688 63.1175 68.349 63.1175 68.7969C63.1175 69.1458 63.0446 69.4661 62.8988 69.7578C62.7529 70.0443 62.542 70.2917 62.266 70.5C61.9951 70.7083 61.667 70.8698 61.2816 70.9844C60.9014 71.099 60.4743 71.1562 60.0003 71.1562C59.2868 71.1562 58.6826 71.0391 58.1878 70.8047C57.6983 70.5651 57.3259 70.2526 57.0707 69.8672C56.8207 69.4766 56.6957 69.0625 56.6957 68.625H57.6253C57.6566 69.0625 57.7946 69.4089 58.0394 69.6641C58.2842 69.9141 58.5837 70.0911 58.9378 70.1953C59.2972 70.2995 59.6514 70.3516 60.0003 70.3516C60.4795 70.3516 60.8806 70.2812 61.2035 70.1406C61.5264 70 61.7712 69.8151 61.9378 69.5859C62.1045 69.3568 62.1878 69.1094 62.1878 68.8438ZM70.18 62.5469V71H69.2503V62.5469H70.18ZM69.0863 60.1016C69.0863 59.9245 69.141 59.776 69.2503 59.6562C69.3649 59.5312 69.5212 59.4688 69.7191 59.4688C69.917 59.4688 70.0733 59.5312 70.1878 59.6562C70.3076 59.776 70.3675 59.9245 70.3675 60.1016C70.3675 60.2734 70.3076 60.4219 70.1878 60.5469C70.0733 60.6667 69.917 60.7266 69.7191 60.7266C69.5212 60.7266 69.3649 60.6667 69.2503 60.5469C69.141 60.4219 69.0863 60.2734 69.0863 60.1016ZM73.6175 64.2969V71H72.68V62.5469H73.5785L73.6175 64.2969ZM73.4457 66.25L72.9925 66.0156C73.0238 65.5156 73.1175 65.0469 73.2738 64.6094C73.4352 64.1719 73.6592 63.7865 73.9457 63.4531C74.2321 63.1198 74.5759 62.8594 74.9769 62.6719C75.3779 62.4844 75.8337 62.3906 76.3441 62.3906C76.7556 62.3906 77.1279 62.4479 77.4613 62.5625C77.7998 62.6719 78.0863 62.8464 78.3207 63.0859C78.5602 63.3203 78.7451 63.6276 78.8753 64.0078C79.0056 64.388 79.0707 64.8438 79.0707 65.375V71H78.141V65.4062C78.141 64.8438 78.0524 64.4036 77.8753 64.0859C77.7035 63.7682 77.4613 63.5417 77.1488 63.4062C76.8415 63.2708 76.4847 63.2031 76.0785 63.2031C75.5993 63.2031 75.1931 63.3021 74.8597 63.5C74.5316 63.6927 74.2634 63.9453 74.055 64.2578C73.8519 64.5651 73.7009 64.8958 73.6019 65.25C73.5029 65.599 73.4509 65.9323 73.4457 66.25ZM79.0628 65.5156L78.4378 65.5312C78.4639 65.1198 78.5576 64.7266 78.7191 64.3516C78.8858 63.9766 79.1123 63.6432 79.3988 63.3516C79.6852 63.0547 80.0264 62.8203 80.4222 62.6484C80.8233 62.4766 81.2738 62.3906 81.7738 62.3906C82.2113 62.3906 82.6019 62.4505 82.9457 62.5703C83.2894 62.6849 83.5785 62.8698 83.8128 63.125C84.0524 63.375 84.2347 63.6953 84.3597 64.0859C84.4847 64.4766 84.5472 64.9453 84.5472 65.4922V71H83.6097V65.4844C83.6097 64.8854 83.5212 64.4219 83.3441 64.0938C83.1722 63.7604 82.9326 63.5286 82.6253 63.3984C82.3181 63.2682 81.9587 63.2031 81.5472 63.2031C81.141 63.2083 80.7842 63.2839 80.4769 63.4297C80.1696 63.5703 79.9118 63.7578 79.7035 63.9922C79.5003 64.2214 79.3441 64.4688 79.2347 64.7344C79.1306 65 79.0733 65.2604 79.0628 65.5156ZM87.8441 64.1719V74.25H86.9066V62.5469H87.7816L87.8441 64.1719ZM93.7191 66.6953V66.8594C93.7191 67.4896 93.6462 68.0677 93.5003 68.5938C93.3545 69.1198 93.1436 69.5755 92.8675 69.9609C92.5967 70.3411 92.2608 70.6354 91.8597 70.8438C91.4587 71.0521 91.0029 71.1562 90.4925 71.1562C89.9873 71.1562 89.5368 71.0781 89.141 70.9219C88.7451 70.7656 88.404 70.5443 88.1175 70.2578C87.8363 69.9661 87.6097 69.6276 87.4378 69.2422C87.2712 68.8516 87.154 68.4245 87.0863 67.9609V65.7969C87.1644 65.2865 87.292 64.8229 87.4691 64.4062C87.6462 63.9896 87.8727 63.6302 88.1488 63.3281C88.43 63.026 88.7634 62.7943 89.1488 62.6328C89.5342 62.4714 89.9743 62.3906 90.4691 62.3906C90.9847 62.3906 91.4431 62.4922 91.8441 62.6953C92.2503 62.8932 92.5915 63.1823 92.8675 63.5625C93.1488 63.9375 93.3597 64.3906 93.5003 64.9219C93.6462 65.4479 93.7191 66.0391 93.7191 66.6953ZM92.7816 66.8594V66.6953C92.7816 66.2005 92.7295 65.7422 92.6253 65.3203C92.5264 64.8984 92.3727 64.5312 92.1644 64.2188C91.9613 63.901 91.7009 63.6536 91.3832 63.4766C91.0707 63.2995 90.6983 63.2109 90.266 63.2109C89.8181 63.2109 89.4352 63.2865 89.1175 63.4375C88.805 63.5833 88.5446 63.7786 88.3363 64.0234C88.1279 64.263 87.9639 64.526 87.8441 64.8125C87.7243 65.099 87.6358 65.3802 87.5785 65.6562V68.1484C87.6774 68.5443 87.8363 68.9115 88.055 69.25C88.2738 69.5833 88.5654 69.8516 88.93 70.0547C89.2998 70.2526 89.7503 70.3516 90.2816 70.3516C90.7087 70.3516 91.0785 70.263 91.391 70.0859C91.7035 69.9089 91.9613 69.6615 92.1644 69.3438C92.3727 69.026 92.5264 68.6562 92.6253 68.2344C92.7295 67.8125 92.7816 67.3542 92.7816 66.8594ZM96.7269 63.9453V71H95.7972V62.5469H96.7035L96.7269 63.9453ZM99.7191 62.4844L99.6957 63.3438C99.5915 63.3281 99.4899 63.3151 99.391 63.3047C99.292 63.2943 99.1852 63.2891 99.0707 63.2891C98.6644 63.2891 98.3076 63.3646 98.0003 63.5156C97.6983 63.6615 97.4431 63.8672 97.2347 64.1328C97.0264 64.3932 96.8675 64.7005 96.7582 65.0547C96.6488 65.4036 96.5863 65.7786 96.5707 66.1797L96.2269 66.3125C96.2269 65.7604 96.2842 65.2474 96.3988 64.7734C96.5134 64.2995 96.6878 63.8854 96.9222 63.5312C97.1618 63.1719 97.4613 62.8932 97.8207 62.6953C98.1852 62.4922 98.6123 62.3906 99.1019 62.3906C99.2217 62.3906 99.3389 62.401 99.4535 62.4219C99.5733 62.4375 99.6618 62.4583 99.7191 62.4844ZM100.516 66.9062V66.6484C100.516 66.0339 100.605 65.4661 100.782 64.9453C100.959 64.4245 101.211 63.974 101.539 63.5938C101.873 63.2135 102.271 62.9193 102.735 62.7109C103.198 62.4974 103.714 62.3906 104.282 62.3906C104.855 62.3906 105.373 62.4974 105.836 62.7109C106.3 62.9193 106.698 63.2135 107.032 63.5938C107.365 63.974 107.62 64.4245 107.797 64.9453C107.974 65.4661 108.063 66.0339 108.063 66.6484V66.9062C108.063 67.5208 107.974 68.0885 107.797 68.6094C107.62 69.125 107.365 69.5729 107.032 69.9531C106.703 70.3333 106.308 70.6302 105.844 70.8438C105.381 71.0521 104.865 71.1562 104.297 71.1562C103.724 71.1562 103.206 71.0521 102.743 70.8438C102.279 70.6302 101.881 70.3333 101.547 69.9531C101.214 69.5729 100.959 69.125 100.782 68.6094C100.605 68.0885 100.516 67.5208 100.516 66.9062ZM101.446 66.6484V66.9062C101.446 67.3698 101.508 67.8099 101.633 68.2266C101.758 68.638 101.94 69.0052 102.18 69.3281C102.42 69.6458 102.716 69.8958 103.071 70.0781C103.425 70.2604 103.834 70.3516 104.297 70.3516C104.756 70.3516 105.159 70.2604 105.508 70.0781C105.862 69.8958 106.159 69.6458 106.399 69.3281C106.638 69.0052 106.818 68.638 106.938 68.2266C107.063 67.8099 107.125 67.3698 107.125 66.9062V66.6484C107.125 66.1901 107.063 65.7552 106.938 65.3438C106.818 64.9323 106.636 64.5651 106.391 64.2422C106.151 63.9193 105.855 63.6641 105.5 63.4766C105.146 63.2891 104.74 63.1953 104.282 63.1953C103.823 63.1953 103.417 63.2891 103.063 63.4766C102.714 63.6641 102.417 63.9193 102.172 64.2422C101.933 64.5651 101.75 64.9323 101.625 65.3438C101.506 65.7552 101.446 66.1901 101.446 66.6484ZM112.368 70.1016L115.078 62.5469H116.039L112.875 71H112.196L112.368 70.1016ZM109.914 62.5469L112.657 70.125L112.805 71H112.118L108.946 62.5469H109.914ZM120.735 71.1562C120.183 71.1562 119.675 71.0547 119.211 70.8516C118.753 70.6484 118.352 70.362 118.008 69.9922C117.67 69.6224 117.407 69.1849 117.219 68.6797C117.037 68.1693 116.946 67.612 116.946 67.0078V66.6719C116.946 66.0208 117.042 65.4323 117.235 64.9062C117.427 64.3802 117.693 63.9297 118.032 63.5547C118.37 63.1797 118.756 62.8932 119.188 62.6953C119.625 62.4922 120.084 62.3906 120.563 62.3906C121.099 62.3906 121.576 62.487 121.993 62.6797C122.409 62.8672 122.758 63.1354 123.039 63.4844C123.326 63.8281 123.542 64.237 123.688 64.7109C123.834 65.1797 123.907 65.6979 123.907 66.2656V66.8359H117.508V66.0391H122.977V65.9297C122.966 65.4557 122.87 65.013 122.688 64.6016C122.511 64.1849 122.245 63.8464 121.891 63.5859C121.537 63.3255 121.094 63.1953 120.563 63.1953C120.167 63.1953 119.802 63.2786 119.469 63.4453C119.141 63.612 118.857 63.8516 118.618 64.1641C118.383 64.4714 118.201 64.8385 118.071 65.2656C117.946 65.6875 117.883 66.1562 117.883 66.6719V67.0078C117.883 67.4766 117.951 67.9141 118.086 68.3203C118.227 68.7214 118.425 69.0755 118.68 69.3828C118.94 69.6901 119.248 69.9297 119.602 70.1016C119.956 70.2734 120.347 70.3594 120.774 70.3594C121.274 70.3594 121.716 70.2682 122.102 70.0859C122.487 69.8984 122.834 69.6042 123.141 69.2031L123.727 69.6562C123.545 69.9271 123.315 70.1771 123.039 70.4062C122.769 70.6354 122.443 70.8177 122.063 70.9531C121.683 71.0885 121.24 71.1562 120.735 71.1562ZM131.258 71H130.328V61.5C130.328 60.9219 130.427 60.4349 130.625 60.0391C130.828 59.6432 131.115 59.3438 131.485 59.1406C131.86 58.9375 132.305 58.8359 132.821 58.8359C132.982 58.8359 133.149 58.8464 133.321 58.8672C133.493 58.8828 133.659 58.9167 133.821 58.9688L133.75 59.7578C133.62 59.7214 133.487 59.6979 133.352 59.6875C133.222 59.6719 133.068 59.6641 132.891 59.6641C132.552 59.6641 132.261 59.737 132.016 59.8828C131.771 60.0234 131.584 60.2292 131.453 60.5C131.323 60.7708 131.258 61.1042 131.258 61.5V71ZM133.274 62.5469V63.3125H128.93V62.5469H133.274ZM134.438 66.9062V66.6484C134.438 66.0339 134.526 65.4661 134.703 64.9453C134.881 64.4245 135.133 63.974 135.461 63.5938C135.795 63.2135 136.193 62.9193 136.657 62.7109C137.12 62.4974 137.636 62.3906 138.203 62.3906C138.776 62.3906 139.295 62.4974 139.758 62.7109C140.222 62.9193 140.62 63.2135 140.953 63.5938C141.287 63.974 141.542 64.4245 141.719 64.9453C141.896 65.4661 141.985 66.0339 141.985 66.6484V66.9062C141.985 67.5208 141.896 68.0885 141.719 68.6094C141.542 69.125 141.287 69.5729 140.953 69.9531C140.625 70.3333 140.23 70.6302 139.766 70.8438C139.302 71.0521 138.787 71.1562 138.219 71.1562C137.646 71.1562 137.128 71.0521 136.664 70.8438C136.201 70.6302 135.802 70.3333 135.469 69.9531C135.136 69.5729 134.881 69.125 134.703 68.6094C134.526 68.0885 134.438 67.5208 134.438 66.9062ZM135.368 66.6484V66.9062C135.368 67.3698 135.43 67.8099 135.555 68.2266C135.68 68.638 135.862 69.0052 136.102 69.3281C136.341 69.6458 136.638 69.8958 136.993 70.0781C137.347 70.2604 137.756 70.3516 138.219 70.3516C138.677 70.3516 139.081 70.2604 139.43 70.0781C139.784 69.8958 140.081 69.6458 140.321 69.3281C140.56 69.0052 140.74 68.638 140.86 68.2266C140.985 67.8099 141.047 67.3698 141.047 66.9062V66.6484C141.047 66.1901 140.985 65.7552 140.86 65.3438C140.74 64.9323 140.558 64.5651 140.313 64.2422C140.073 63.9193 139.776 63.6641 139.422 63.4766C139.068 63.2891 138.662 63.1953 138.203 63.1953C137.745 63.1953 137.339 63.2891 136.985 63.4766C136.636 63.6641 136.339 63.9193 136.094 64.2422C135.855 64.5651 135.672 64.9323 135.547 65.3438C135.427 65.7552 135.368 66.1901 135.368 66.6484ZM144.852 63.9453V71H143.922V62.5469H144.828L144.852 63.9453ZM147.844 62.4844L147.821 63.3438C147.716 63.3281 147.615 63.3151 147.516 63.3047C147.417 63.2943 147.31 63.2891 147.196 63.2891C146.789 63.2891 146.433 63.3646 146.125 63.5156C145.823 63.6615 145.568 63.8672 145.36 64.1328C145.151 64.3932 144.993 64.7005 144.883 65.0547C144.774 65.4036 144.711 65.7786 144.696 66.1797L144.352 66.3125C144.352 65.7604 144.409 65.2474 144.524 64.7734C144.638 64.2995 144.813 63.8854 145.047 63.5312C145.287 63.1719 145.586 62.8932 145.946 62.6953C146.31 62.4922 146.737 62.3906 147.227 62.3906C147.347 62.3906 147.464 62.401 147.578 62.4219C147.698 62.4375 147.787 62.4583 147.844 62.4844ZM155.727 70.1562L158.36 62.5469H159.368L155.789 72.3594C155.716 72.5521 155.623 72.7656 155.508 73C155.399 73.2344 155.253 73.4583 155.071 73.6719C154.894 73.8906 154.67 74.0677 154.399 74.2031C154.133 74.3438 153.808 74.4141 153.422 74.4141C153.323 74.4141 153.196 74.401 153.039 74.375C152.888 74.3542 152.779 74.3333 152.711 74.3125L152.703 73.5234C152.761 73.5391 152.844 73.5521 152.953 73.5625C153.063 73.5729 153.138 73.5781 153.18 73.5781C153.519 73.5781 153.802 73.5208 154.032 73.4062C154.266 73.2917 154.461 73.1198 154.618 72.8906C154.774 72.6667 154.912 72.3854 155.032 72.0469L155.727 70.1562ZM153.266 62.5469L155.961 69.8047L156.211 70.7812L155.532 71.1641L152.25 62.5469H153.266ZM160.188 66.9062V66.6484C160.188 66.0339 160.276 65.4661 160.453 64.9453C160.631 64.4245 160.883 63.974 161.211 63.5938C161.545 63.2135 161.943 62.9193 162.407 62.7109C162.87 62.4974 163.386 62.3906 163.953 62.3906C164.526 62.3906 165.045 62.4974 165.508 62.7109C165.972 62.9193 166.37 63.2135 166.703 63.5938C167.037 63.974 167.292 64.4245 167.469 64.9453C167.646 65.4661 167.735 66.0339 167.735 66.6484V66.9062C167.735 67.5208 167.646 68.0885 167.469 68.6094C167.292 69.125 167.037 69.5729 166.703 69.9531C166.375 70.3333 165.98 70.6302 165.516 70.8438C165.052 71.0521 164.537 71.1562 163.969 71.1562C163.396 71.1562 162.878 71.0521 162.414 70.8438C161.951 70.6302 161.552 70.3333 161.219 69.9531C160.886 69.5729 160.631 69.125 160.453 68.6094C160.276 68.0885 160.188 67.5208 160.188 66.9062ZM161.118 66.6484V66.9062C161.118 67.3698 161.18 67.8099 161.305 68.2266C161.43 68.638 161.612 69.0052 161.852 69.3281C162.091 69.6458 162.388 69.8958 162.743 70.0781C163.097 70.2604 163.506 70.3516 163.969 70.3516C164.427 70.3516 164.831 70.2604 165.18 70.0781C165.534 69.8958 165.831 69.6458 166.071 69.3281C166.31 69.0052 166.49 68.638 166.61 68.2266C166.735 67.8099 166.797 67.3698 166.797 66.9062V66.6484C166.797 66.1901 166.735 65.7552 166.61 65.3438C166.49 64.9323 166.308 64.5651 166.063 64.2422C165.823 63.9193 165.526 63.6641 165.172 63.4766C164.818 63.2891 164.412 63.1953 163.953 63.1953C163.495 63.1953 163.089 63.2891 162.735 63.4766C162.386 63.6641 162.089 63.9193 161.844 64.2422C161.605 64.5651 161.422 64.9323 161.297 65.3438C161.177 65.7552 161.118 66.1901 161.118 66.6484ZM175.086 69.0469V62.5469H176.024V71H175.125L175.086 69.0469ZM175.258 67.4844L175.743 67.4688C175.743 68 175.68 68.4896 175.555 68.9375C175.43 69.3854 175.235 69.776 174.969 70.1094C174.703 70.4427 174.36 70.7005 173.938 70.8828C173.516 71.0651 173.008 71.1562 172.414 71.1562C172.003 71.1562 171.625 71.099 171.282 70.9844C170.943 70.8646 170.651 70.6771 170.407 70.4219C170.162 70.1667 169.972 69.8359 169.836 69.4297C169.706 69.0234 169.641 68.5312 169.641 67.9531V62.5469H170.571V67.9688C170.571 68.4219 170.62 68.7995 170.719 69.1016C170.823 69.4036 170.964 69.6458 171.141 69.8281C171.323 70.0104 171.532 70.1406 171.766 70.2188C172 70.2969 172.253 70.3359 172.524 70.3359C173.211 70.3359 173.753 70.2031 174.149 69.9375C174.55 69.6719 174.834 69.3229 175 68.8906C175.172 68.4531 175.258 67.9844 175.258 67.4844ZM178.383 70.4297C178.383 70.2474 178.44 70.0938 178.555 69.9688C178.675 69.8385 178.836 69.7734 179.039 69.7734C179.248 69.7734 179.412 69.8359 179.532 69.9609C179.651 70.0859 179.711 70.2422 179.711 70.4297C179.711 70.6068 179.651 70.7578 179.532 70.8828C179.412 71.0078 179.248 71.0703 179.039 71.0703C178.836 71.0703 178.675 71.0078 178.555 70.8828C178.44 70.7578 178.383 70.6068 178.383 70.4297Z" fill="white"/>
</svg>
