<svg width="227" height="162" viewBox="0 0 227 162" fill="none" xmlns="http://www.w3.org/2000/svg">
<rect x="1.5" y="1.5" width="224" height="159" rx="18.5" fill="#3A2050" fill-opacity="0.7" stroke="#B0E31B" stroke-width="3"/>
<path d="M39.4613 37H36.8832L36.8988 36.1797H39.4613C40.279 36.1797 40.9821 35.9974 41.5707 35.6328C42.1644 35.263 42.6227 34.7526 42.9457 34.1016C43.2686 33.4505 43.43 32.6953 43.43 31.8359V30.7734C43.43 30.1172 43.3363 29.5234 43.1488 28.9922C42.9665 28.4609 42.7035 28.0078 42.3597 27.6328C42.016 27.2526 41.6045 26.9609 41.1253 26.7578C40.6514 26.5547 40.1201 26.4531 39.5316 26.4531H36.8363V25.625H39.5316C40.2399 25.625 40.8884 25.7474 41.4769 25.9922C42.0707 26.2318 42.5837 26.5807 43.016 27.0391C43.4535 27.4922 43.7894 28.0365 44.0238 28.6719C44.2634 29.3073 44.3832 30.0156 44.3832 30.7969V31.8359C44.3832 32.6172 44.2634 33.3255 44.0238 33.9609C43.7894 34.5964 43.4535 35.1406 43.016 35.5938C42.5785 36.0469 42.0602 36.3958 41.4613 36.6406C40.8623 36.8802 40.1957 37 39.4613 37ZM37.3128 25.625V37H36.3519V25.625H37.3128ZM46.1019 32.9062V32.6484C46.1019 32.0339 46.1904 31.4661 46.3675 30.9453C46.5446 30.4245 46.7972 29.974 47.1253 29.5938C47.4587 29.2135 47.8571 28.9193 48.3207 28.7109C48.7842 28.4974 49.2998 28.3906 49.8675 28.3906C50.4404 28.3906 50.9587 28.4974 51.4222 28.7109C51.8858 28.9193 52.2842 29.2135 52.6175 29.5938C52.9509 29.974 53.2061 30.4245 53.3832 30.9453C53.5602 31.4661 53.6488 32.0339 53.6488 32.6484V32.9062C53.6488 33.5208 53.5602 34.0885 53.3832 34.6094C53.2061 35.125 52.9509 35.5729 52.6175 35.9531C52.2894 36.3333 51.8936 36.6302 51.43 36.8438C50.9665 37.0521 50.4509 37.1562 49.8832 37.1562C49.3102 37.1562 48.792 37.0521 48.3285 36.8438C47.8649 36.6302 47.4665 36.3333 47.1332 35.9531C46.7998 35.5729 46.5446 35.125 46.3675 34.6094C46.1904 34.0885 46.1019 33.5208 46.1019 32.9062ZM47.0316 32.6484V32.9062C47.0316 33.3698 47.0941 33.8099 47.2191 34.2266C47.3441 34.638 47.5264 35.0052 47.766 35.3281C48.0056 35.6458 48.3024 35.8958 48.6566 36.0781C49.0108 36.2604 49.4196 36.3516 49.8832 36.3516C50.3415 36.3516 50.7451 36.2604 51.0941 36.0781C51.4483 35.8958 51.7451 35.6458 51.9847 35.3281C52.2243 35.0052 52.404 34.638 52.5238 34.2266C52.6488 33.8099 52.7113 33.3698 52.7113 32.9062V32.6484C52.7113 32.1901 52.6488 31.7552 52.5238 31.3438C52.404 30.9323 52.2217 30.5651 51.9769 30.2422C51.7373 29.9193 51.4404 29.6641 51.0863 29.4766C50.7321 29.2891 50.3259 29.1953 49.8675 29.1953C49.4092 29.1953 49.0029 29.2891 48.6488 29.4766C48.2998 29.6641 48.0029 29.9193 47.7582 30.2422C47.5186 30.5651 47.3363 30.9323 47.2113 31.3438C47.0915 31.7552 47.0316 32.1901 47.0316 32.6484ZM62.0003 36.1562L64.6332 28.5469H65.641L62.0628 38.3594C61.9899 38.5521 61.8962 38.7656 61.7816 39C61.6722 39.2344 61.5264 39.4583 61.3441 39.6719C61.167 39.8906 60.9431 40.0677 60.6722 40.2031C60.4066 40.3438 60.0811 40.4141 59.6957 40.4141C59.5967 40.4141 59.4691 40.401 59.3128 40.375C59.1618 40.3542 59.0524 40.3333 58.9847 40.3125L58.9769 39.5234C59.0342 39.5391 59.1175 39.5521 59.2269 39.5625C59.3363 39.5729 59.4118 39.5781 59.4535 39.5781C59.792 39.5781 60.0759 39.5208 60.305 39.4062C60.5394 39.2917 60.7347 39.1198 60.891 38.8906C61.0472 38.6667 61.1852 38.3854 61.305 38.0469L62.0003 36.1562ZM59.5394 28.5469L62.2347 35.8047L62.4847 36.7812L61.805 37.1641L58.5238 28.5469H59.5394ZM66.4613 32.9062V32.6484C66.4613 32.0339 66.5498 31.4661 66.7269 30.9453C66.904 30.4245 67.1566 29.974 67.4847 29.5938C67.8181 29.2135 68.2165 28.9193 68.68 28.7109C69.1436 28.4974 69.6592 28.3906 70.2269 28.3906C70.7998 28.3906 71.3181 28.4974 71.7816 28.7109C72.2451 28.9193 72.6436 29.2135 72.9769 29.5938C73.3102 29.974 73.5654 30.4245 73.7425 30.9453C73.9196 31.4661 74.0082 32.0339 74.0082 32.6484V32.9062C74.0082 33.5208 73.9196 34.0885 73.7425 34.6094C73.5654 35.125 73.3102 35.5729 72.9769 35.9531C72.6488 36.3333 72.2529 36.6302 71.7894 36.8438C71.3259 37.0521 70.8102 37.1562 70.2425 37.1562C69.6696 37.1562 69.1514 37.0521 68.6878 36.8438C68.2243 36.6302 67.8259 36.3333 67.4925 35.9531C67.1592 35.5729 66.904 35.125 66.7269 34.6094C66.5498 34.0885 66.4613 33.5208 66.4613 32.9062ZM67.391 32.6484V32.9062C67.391 33.3698 67.4535 33.8099 67.5785 34.2266C67.7035 34.638 67.8858 35.0052 68.1253 35.3281C68.3649 35.6458 68.6618 35.8958 69.016 36.0781C69.3701 36.2604 69.779 36.3516 70.2425 36.3516C70.7009 36.3516 71.1045 36.2604 71.4535 36.0781C71.8076 35.8958 72.1045 35.6458 72.3441 35.3281C72.5837 35.0052 72.7634 34.638 72.8832 34.2266C73.0082 33.8099 73.0707 33.3698 73.0707 32.9062V32.6484C73.0707 32.1901 73.0082 31.7552 72.8832 31.3438C72.7634 30.9323 72.5811 30.5651 72.3363 30.2422C72.0967 29.9193 71.7998 29.6641 71.4457 29.4766C71.0915 29.2891 70.6852 29.1953 70.2269 29.1953C69.7686 29.1953 69.3623 29.2891 69.0082 29.4766C68.6592 29.6641 68.3623 29.9193 68.1175 30.2422C67.8779 30.5651 67.6957 30.9323 67.5707 31.3438C67.4509 31.7552 67.391 32.1901 67.391 32.6484ZM81.3597 35.0469V28.5469H82.2972V37H81.3988L81.3597 35.0469ZM81.5316 33.4844L82.016 33.4688C82.016 34 81.9535 34.4896 81.8285 34.9375C81.7035 35.3854 81.5082 35.776 81.2425 36.1094C80.9769 36.4427 80.6332 36.7005 80.2113 36.8828C79.7894 37.0651 79.2816 37.1562 78.6878 37.1562C78.2764 37.1562 77.8988 37.099 77.555 36.9844C77.2165 36.8646 76.9248 36.6771 76.68 36.4219C76.4352 36.1667 76.2451 35.8359 76.1097 35.4297C75.9795 35.0234 75.9144 34.5312 75.9144 33.9531V28.5469H76.8441V33.9688C76.8441 34.4219 76.8936 34.7995 76.9925 35.1016C77.0967 35.4036 77.2373 35.6458 77.4144 35.8281C77.5967 36.0104 77.805 36.1406 78.0394 36.2188C78.2738 36.2969 78.5264 36.3359 78.7972 36.3359C79.4847 36.3359 80.0264 36.2031 80.4222 35.9375C80.8233 35.6719 81.1071 35.3229 81.2738 34.8906C81.4457 34.4531 81.5316 33.9844 81.5316 33.4844ZM89.5785 30.3516V37H88.6488V28.5469H89.5394L89.5785 30.3516ZM89.3675 32.25L88.9535 32.0156C88.9847 31.5156 89.0863 31.0469 89.2582 30.6094C89.43 30.1719 89.6618 29.7865 89.9535 29.4531C90.2503 29.1198 90.5967 28.8594 90.9925 28.6719C91.3936 28.4844 91.8363 28.3906 92.3207 28.3906C92.7425 28.3906 93.1201 28.4479 93.4535 28.5625C93.7868 28.6771 94.0707 28.8594 94.305 29.1094C94.5394 29.3594 94.7165 29.6797 94.8363 30.0703C94.9613 30.4609 95.0238 30.9375 95.0238 31.5V37H94.0863V31.4922C94.0863 30.9089 94.0056 30.4531 93.8441 30.125C93.6826 29.7917 93.4535 29.5547 93.1566 29.4141C92.8597 29.2734 92.5082 29.2031 92.1019 29.2031C91.654 29.2031 91.2608 29.3021 90.9222 29.5C90.5889 29.6927 90.3076 29.9453 90.0785 30.2578C89.8545 30.5651 89.6826 30.8958 89.5628 31.25C89.4431 31.599 89.3779 31.9323 89.3675 32.25ZM100.711 37.1562C100.159 37.1562 99.6514 37.0547 99.1878 36.8516C98.7295 36.6484 98.3285 36.362 97.9847 35.9922C97.6462 35.6224 97.3832 35.1849 97.1957 34.6797C97.0134 34.1693 96.9222 33.612 96.9222 33.0078V32.6719C96.9222 32.0208 97.0186 31.4323 97.2113 30.9062C97.404 30.3802 97.6696 29.9297 98.0082 29.5547C98.3467 29.1797 98.7321 28.8932 99.1644 28.6953C99.6019 28.4922 100.06 28.3906 100.539 28.3906C101.076 28.3906 101.552 28.487 101.969 28.6797C102.386 28.8672 102.735 29.1354 103.016 29.4844C103.302 29.8281 103.519 30.237 103.664 30.7109C103.81 31.1797 103.883 31.6979 103.883 32.2656V32.8359H97.4847V32.0391H102.953V31.9297C102.943 31.4557 102.847 31.013 102.664 30.6016C102.487 30.1849 102.222 29.8464 101.868 29.5859C101.513 29.3255 101.071 29.1953 100.539 29.1953C100.144 29.1953 99.779 29.2786 99.4457 29.4453C99.1175 29.612 98.8337 29.8516 98.5941 30.1641C98.3597 30.4714 98.1774 30.8385 98.0472 31.2656C97.9222 31.6875 97.8597 32.1562 97.8597 32.6719V33.0078C97.8597 33.4766 97.9274 33.9141 98.0628 34.3203C98.2035 34.7214 98.4014 35.0755 98.6566 35.3828C98.917 35.6901 99.2243 35.9297 99.5785 36.1016C99.9326 36.2734 100.323 36.3594 100.75 36.3594C101.25 36.3594 101.693 36.2682 102.078 36.0859C102.464 35.8984 102.81 35.6042 103.118 35.2031L103.703 35.6562C103.521 35.9271 103.292 36.1771 103.016 36.4062C102.745 36.6354 102.42 36.8177 102.039 36.9531C101.659 37.0885 101.216 37.1562 100.711 37.1562ZM108.993 37.1562C108.44 37.1562 107.933 37.0547 107.469 36.8516C107.011 36.6484 106.61 36.362 106.266 35.9922C105.927 35.6224 105.664 35.1849 105.477 34.6797C105.295 34.1693 105.203 33.612 105.203 33.0078V32.6719C105.203 32.0208 105.3 31.4323 105.493 30.9062C105.685 30.3802 105.951 29.9297 106.289 29.5547C106.628 29.1797 107.013 28.8932 107.446 28.6953C107.883 28.4922 108.341 28.3906 108.821 28.3906C109.357 28.3906 109.834 28.487 110.25 28.6797C110.667 28.8672 111.016 29.1354 111.297 29.4844C111.584 29.8281 111.8 30.237 111.946 30.7109C112.091 31.1797 112.164 31.6979 112.164 32.2656V32.8359H105.766V32.0391H111.235V31.9297C111.224 31.4557 111.128 31.013 110.946 30.6016C110.769 30.1849 110.503 29.8464 110.149 29.5859C109.795 29.3255 109.352 29.1953 108.821 29.1953C108.425 29.1953 108.06 29.2786 107.727 29.4453C107.399 29.612 107.115 29.8516 106.875 30.1641C106.641 30.4714 106.459 30.8385 106.328 31.2656C106.203 31.6875 106.141 32.1562 106.141 32.6719V33.0078C106.141 33.4766 106.209 33.9141 106.344 34.3203C106.485 34.7214 106.683 35.0755 106.938 35.3828C107.198 35.6901 107.506 35.9297 107.86 36.1016C108.214 36.2734 108.605 36.3594 109.032 36.3594C109.532 36.3594 109.974 36.2682 110.36 36.0859C110.745 35.8984 111.091 35.6042 111.399 35.2031L111.985 35.6562C111.802 35.9271 111.573 36.1771 111.297 36.4062C111.026 36.6354 110.701 36.8177 110.321 36.9531C109.94 37.0885 109.498 37.1562 108.993 37.1562ZM119.5 35.3594V25H120.438V37H119.563L119.5 35.3594ZM113.633 32.8594V32.6953C113.633 32.0391 113.709 31.4479 113.86 30.9219C114.011 30.3906 114.227 29.9375 114.508 29.5625C114.795 29.1823 115.138 28.8932 115.539 28.6953C115.94 28.4922 116.394 28.3906 116.899 28.3906C117.394 28.3906 117.831 28.4714 118.211 28.6328C118.591 28.7943 118.917 29.026 119.188 29.3281C119.464 29.6302 119.685 29.9896 119.852 30.4062C120.024 30.8229 120.149 31.2865 120.227 31.7969V33.8828C120.164 34.362 120.05 34.8021 119.883 35.2031C119.716 35.599 119.495 35.9453 119.219 36.2422C118.943 36.5339 118.61 36.7604 118.219 36.9219C117.834 37.0781 117.388 37.1562 116.883 37.1562C116.383 37.1562 115.933 37.0521 115.532 36.8438C115.131 36.6354 114.789 36.3411 114.508 35.9609C114.227 35.5755 114.011 35.1198 113.86 34.5938C113.709 34.0677 113.633 33.4896 113.633 32.8594ZM114.571 32.6953V32.8594C114.571 33.3542 114.62 33.8125 114.719 34.2344C114.818 34.6562 114.969 35.0234 115.172 35.3359C115.375 35.6484 115.633 35.8932 115.946 36.0703C116.258 36.2474 116.628 36.3359 117.055 36.3359C117.591 36.3359 118.042 36.2344 118.407 36.0312C118.771 35.8229 119.063 35.5495 119.282 35.2109C119.5 34.8672 119.659 34.4922 119.758 34.0859V31.6562C119.696 31.3802 119.605 31.099 119.485 30.8125C119.365 30.526 119.201 30.263 118.993 30.0234C118.789 29.7786 118.529 29.5833 118.211 29.4375C117.899 29.2865 117.519 29.2109 117.071 29.2109C116.638 29.2109 116.266 29.2995 115.953 29.4766C115.641 29.6536 115.381 29.901 115.172 30.2188C114.969 30.5312 114.818 30.8984 114.719 31.3203C114.62 31.7422 114.571 32.2005 114.571 32.6953ZM131.946 35.4844V31.125C131.946 30.724 131.862 30.3776 131.696 30.0859C131.529 29.7943 131.284 29.5703 130.961 29.4141C130.638 29.2578 130.24 29.1797 129.766 29.1797C129.328 29.1797 128.938 29.2578 128.594 29.4141C128.256 29.5651 127.987 29.7708 127.789 30.0312C127.597 30.2865 127.5 30.5703 127.5 30.8828L126.563 30.875C126.563 30.5573 126.641 30.25 126.797 29.9531C126.953 29.6562 127.175 29.3906 127.461 29.1562C127.748 28.9219 128.089 28.737 128.485 28.6016C128.886 28.4609 129.326 28.3906 129.805 28.3906C130.409 28.3906 130.94 28.4922 131.399 28.6953C131.862 28.8984 132.224 29.2031 132.485 29.6094C132.745 30.0156 132.875 30.526 132.875 31.1406V35.2266C132.875 35.5182 132.896 35.8203 132.938 36.1328C132.985 36.4453 133.05 36.7031 133.133 36.9062V37H132.141C132.078 36.8125 132.029 36.5781 131.993 36.2969C131.961 36.0104 131.946 35.7396 131.946 35.4844ZM132.164 32.0781L132.18 32.7969H130.344C129.865 32.7969 129.435 32.8411 129.055 32.9297C128.68 33.013 128.362 33.138 128.102 33.3047C127.841 33.4661 127.641 33.6615 127.5 33.8906C127.365 34.1198 127.297 34.3802 127.297 34.6719C127.297 34.974 127.373 35.25 127.524 35.5C127.68 35.75 127.899 35.9505 128.18 36.1016C128.466 36.2474 128.805 36.3203 129.196 36.3203C129.716 36.3203 130.175 36.224 130.571 36.0312C130.972 35.8385 131.302 35.5859 131.563 35.2734C131.823 34.9609 131.998 34.6198 132.086 34.25L132.493 34.7891C132.425 35.0495 132.3 35.3177 132.118 35.5938C131.94 35.8646 131.709 36.1198 131.422 36.3594C131.136 36.5938 130.797 36.7865 130.407 36.9375C130.021 37.0833 129.584 37.1562 129.094 37.1562C128.542 37.1562 128.06 37.0521 127.649 36.8438C127.243 36.6354 126.925 36.3516 126.696 35.9922C126.472 35.6276 126.36 35.2161 126.36 34.7578C126.36 34.3411 126.448 33.9688 126.625 33.6406C126.802 33.3073 127.058 33.026 127.391 32.7969C127.73 32.5625 128.136 32.3854 128.61 32.2656C129.089 32.1406 129.625 32.0781 130.219 32.0781H132.164ZM136.313 30.3516V37H135.383V28.5469H136.274L136.313 30.3516ZM136.102 32.25L135.688 32.0156C135.719 31.5156 135.821 31.0469 135.993 30.6094C136.164 30.1719 136.396 29.7865 136.688 29.4531C136.985 29.1198 137.331 28.8594 137.727 28.6719C138.128 28.4844 138.571 28.3906 139.055 28.3906C139.477 28.3906 139.855 28.4479 140.188 28.5625C140.521 28.6771 140.805 28.8594 141.039 29.1094C141.274 29.3594 141.451 29.6797 141.571 30.0703C141.696 30.4609 141.758 30.9375 141.758 31.5V37H140.821V31.4922C140.821 30.9089 140.74 30.4531 140.578 30.125C140.417 29.7917 140.188 29.5547 139.891 29.4141C139.594 29.2734 139.243 29.2031 138.836 29.2031C138.388 29.2031 137.995 29.3021 137.657 29.5C137.323 29.6927 137.042 29.9453 136.813 30.2578C136.589 30.5651 136.417 30.8958 136.297 31.25C136.177 31.599 136.112 31.9323 136.102 32.25ZM146.688 36.1562L149.321 28.5469H150.328L146.75 38.3594C146.677 38.5521 146.584 38.7656 146.469 39C146.36 39.2344 146.214 39.4583 146.032 39.6719C145.855 39.8906 145.631 40.0677 145.36 40.2031C145.094 40.3438 144.769 40.4141 144.383 40.4141C144.284 40.4141 144.157 40.401 144 40.375C143.849 40.3542 143.74 40.3333 143.672 40.3125L143.664 39.5234C143.722 39.5391 143.805 39.5521 143.914 39.5625C144.024 39.5729 144.099 39.5781 144.141 39.5781C144.48 39.5781 144.763 39.5208 144.993 39.4062C145.227 39.2917 145.422 39.1198 145.578 38.8906C145.735 38.6667 145.873 38.3854 145.993 38.0469L146.688 36.1562ZM144.227 28.5469L146.922 35.8047L147.172 36.7812L146.493 37.1641L143.211 28.5469H144.227ZM156.625 25V37H155.696V25H156.625ZM156.414 32.25L156 32.0156C156.032 31.5156 156.133 31.0469 156.305 30.6094C156.477 30.1719 156.709 29.7865 157 29.4531C157.297 29.1198 157.644 28.8594 158.039 28.6719C158.44 28.4844 158.883 28.3906 159.368 28.3906C159.789 28.3906 160.167 28.4479 160.5 28.5625C160.834 28.6771 161.118 28.8594 161.352 29.1094C161.586 29.3594 161.763 29.6797 161.883 30.0703C162.008 30.4609 162.071 30.9375 162.071 31.5V37H161.133V31.4922C161.133 30.9089 161.052 30.4531 160.891 30.125C160.73 29.7917 160.5 29.5547 160.203 29.4141C159.907 29.2734 159.555 29.2031 159.149 29.2031C158.701 29.2031 158.308 29.3021 157.969 29.5C157.636 29.6927 157.355 29.9453 157.125 30.2578C156.901 30.5651 156.73 30.8958 156.61 31.25C156.49 31.599 156.425 31.9323 156.414 32.25ZM167.743 37.1562C167.19 37.1562 166.683 37.0547 166.219 36.8516C165.761 36.6484 165.36 36.362 165.016 35.9922C164.677 35.6224 164.414 35.1849 164.227 34.6797C164.045 34.1693 163.953 33.612 163.953 33.0078V32.6719C163.953 32.0208 164.05 31.4323 164.243 30.9062C164.435 30.3802 164.701 29.9297 165.039 29.5547C165.378 29.1797 165.763 28.8932 166.196 28.6953C166.633 28.4922 167.091 28.3906 167.571 28.3906C168.107 28.3906 168.584 28.487 169 28.6797C169.417 28.8672 169.766 29.1354 170.047 29.4844C170.334 29.8281 170.55 30.237 170.696 30.7109C170.841 31.1797 170.914 31.6979 170.914 32.2656V32.8359H164.516V32.0391H169.985V31.9297C169.974 31.4557 169.878 31.013 169.696 30.6016C169.519 30.1849 169.253 29.8464 168.899 29.5859C168.545 29.3255 168.102 29.1953 167.571 29.1953C167.175 29.1953 166.81 29.2786 166.477 29.4453C166.149 29.612 165.865 29.8516 165.625 30.1641C165.391 30.4714 165.209 30.8385 165.078 31.2656C164.953 31.6875 164.891 32.1562 164.891 32.6719V33.0078C164.891 33.4766 164.959 33.9141 165.094 34.3203C165.235 34.7214 165.433 35.0755 165.688 35.3828C165.948 35.6901 166.256 35.9297 166.61 36.1016C166.964 36.2734 167.355 36.3594 167.782 36.3594C168.282 36.3594 168.724 36.2682 169.11 36.0859C169.495 35.8984 169.841 35.6042 170.149 35.2031L170.735 35.6562C170.552 35.9271 170.323 36.1771 170.047 36.4062C169.776 36.6354 169.451 36.8177 169.071 36.9531C168.69 37.0885 168.248 37.1562 167.743 37.1562ZM173.797 25V37H172.868V25H173.797ZM177.274 30.1719V40.25H176.336V28.5469H177.211L177.274 30.1719ZM183.149 32.6953V32.8594C183.149 33.4896 183.076 34.0677 182.93 34.5938C182.784 35.1198 182.573 35.5755 182.297 35.9609C182.026 36.3411 181.69 36.6354 181.289 36.8438C180.888 37.0521 180.433 37.1562 179.922 37.1562C179.417 37.1562 178.966 37.0781 178.571 36.9219C178.175 36.7656 177.834 36.5443 177.547 36.2578C177.266 35.9661 177.039 35.6276 176.868 35.2422C176.701 34.8516 176.584 34.4245 176.516 33.9609V31.7969C176.594 31.2865 176.722 30.8229 176.899 30.4062C177.076 29.9896 177.302 29.6302 177.578 29.3281C177.86 29.026 178.193 28.7943 178.578 28.6328C178.964 28.4714 179.404 28.3906 179.899 28.3906C180.414 28.3906 180.873 28.4922 181.274 28.6953C181.68 28.8932 182.021 29.1823 182.297 29.5625C182.578 29.9375 182.789 30.3906 182.93 30.9219C183.076 31.4479 183.149 32.0391 183.149 32.6953ZM182.211 32.8594V32.6953C182.211 32.2005 182.159 31.7422 182.055 31.3203C181.956 30.8984 181.802 30.5312 181.594 30.2188C181.391 29.901 181.131 29.6536 180.813 29.4766C180.5 29.2995 180.128 29.2109 179.696 29.2109C179.248 29.2109 178.865 29.2865 178.547 29.4375C178.235 29.5833 177.974 29.7786 177.766 30.0234C177.558 30.263 177.394 30.526 177.274 30.8125C177.154 31.099 177.065 31.3802 177.008 31.6562V34.1484C177.107 34.5443 177.266 34.9115 177.485 35.25C177.703 35.5833 177.995 35.8516 178.36 36.0547C178.73 36.2526 179.18 36.3516 179.711 36.3516C180.138 36.3516 180.508 36.263 180.821 36.0859C181.133 35.9089 181.391 35.6615 181.594 35.3438C181.802 35.026 181.956 34.6562 182.055 34.2344C182.159 33.8125 182.211 33.3542 182.211 32.8594ZM187.875 33.8359H186.938C186.943 33.3932 186.987 33.0182 187.071 32.7109C187.154 32.4036 187.289 32.1198 187.477 31.8594C187.664 31.599 187.917 31.3125 188.235 31C188.511 30.724 188.756 30.4688 188.969 30.2344C189.183 29.9948 189.349 29.7318 189.469 29.4453C189.594 29.1589 189.657 28.8073 189.657 28.3906C189.657 27.9792 189.584 27.6172 189.438 27.3047C189.292 26.9922 189.073 26.7474 188.782 26.5703C188.49 26.3932 188.125 26.3047 187.688 26.3047C187.287 26.3047 186.927 26.3828 186.61 26.5391C186.297 26.6953 186.05 26.9219 185.868 27.2188C185.69 27.5104 185.597 27.8646 185.586 28.2812H184.657C184.667 27.6875 184.808 27.1823 185.078 26.7656C185.355 26.3438 185.719 26.0234 186.172 25.8047C186.631 25.5807 187.136 25.4688 187.688 25.4688C188.313 25.4688 188.839 25.5911 189.266 25.8359C189.698 26.0807 190.026 26.4219 190.25 26.8594C190.48 27.2969 190.594 27.8047 190.594 28.3828C190.594 28.8464 190.516 29.2656 190.36 29.6406C190.203 30.0104 189.987 30.3594 189.711 30.6875C189.435 31.0156 189.115 31.3464 188.75 31.6797C188.417 31.9661 188.188 32.2943 188.063 32.6641C187.938 33.0286 187.875 33.4193 187.875 33.8359ZM186.813 36.4453C186.813 36.2682 186.87 36.1198 186.985 36C187.099 35.875 187.256 35.8125 187.453 35.8125C187.651 35.8125 187.808 35.875 187.922 36C188.042 36.1198 188.102 36.2682 188.102 36.4453C188.102 36.6172 188.042 36.7656 187.922 36.8906C187.808 37.0104 187.651 37.0703 187.453 37.0703C187.256 37.0703 187.099 37.0104 186.985 36.8906C186.87 36.7656 186.813 36.6172 186.813 36.4453ZM43.8363 47.7031V48.9219C43.8363 49.7188 43.7321 50.4401 43.5238 51.0859C43.3207 51.7266 43.0238 52.276 42.6332 52.7344C42.2477 53.1927 41.7842 53.5443 41.2425 53.7891C40.7009 54.0339 40.0915 54.1562 39.4144 54.1562C38.7529 54.1562 38.1488 54.0339 37.6019 53.7891C37.0602 53.5443 36.5941 53.1927 36.2035 52.7344C35.8128 52.276 35.5108 51.7266 35.2972 51.0859C35.0837 50.4401 34.9769 49.7188 34.9769 48.9219V47.7031C34.9769 46.9062 35.0811 46.1875 35.2894 45.5469C35.5029 44.901 35.805 44.349 36.1957 43.8906C36.5863 43.4323 37.0524 43.0807 37.5941 42.8359C38.1358 42.5911 38.7373 42.4688 39.3988 42.4688C40.0759 42.4688 40.6852 42.5911 41.2269 42.8359C41.7686 43.0807 42.2347 43.4323 42.6253 43.8906C43.016 44.349 43.3154 44.901 43.5238 45.5469C43.7321 46.1875 43.8363 46.9062 43.8363 47.7031ZM42.8832 48.9219V47.6875C42.8832 47.0156 42.805 46.4115 42.6488 45.875C42.4977 45.3385 42.2712 44.8802 41.9691 44.5C41.6722 44.1198 41.3076 43.8281 40.8753 43.625C40.4431 43.4219 39.9509 43.3203 39.3988 43.3203C38.8623 43.3203 38.3806 43.4219 37.9535 43.625C37.5264 43.8281 37.1618 44.1198 36.8597 44.5C36.5628 44.8802 36.3337 45.3385 36.1722 45.875C36.016 46.4115 35.9378 47.0156 35.9378 47.6875V48.9219C35.9378 49.599 36.016 50.2083 36.1722 50.75C36.3337 51.2865 36.5654 51.7474 36.8675 52.1328C37.1696 52.513 37.5342 52.8047 37.9613 53.0078C38.3936 53.2109 38.8779 53.3125 39.4144 53.3125C39.9717 53.3125 40.4639 53.2109 40.891 53.0078C41.3181 52.8047 41.68 52.513 41.9769 52.1328C42.2738 51.7474 42.4977 51.2865 42.6488 50.75C42.805 50.2083 42.8832 49.599 42.8832 48.9219ZM51.4613 52.0469V45.5469H52.3988V54H51.5003L51.4613 52.0469ZM51.6332 50.4844L52.1175 50.4688C52.1175 51 52.055 51.4896 51.93 51.9375C51.805 52.3854 51.6097 52.776 51.3441 53.1094C51.0785 53.4427 50.7347 53.7005 50.3128 53.8828C49.891 54.0651 49.3832 54.1562 48.7894 54.1562C48.3779 54.1562 48.0003 54.099 47.6566 53.9844C47.3181 53.8646 47.0264 53.6771 46.7816 53.4219C46.5368 53.1667 46.3467 52.8359 46.2113 52.4297C46.0811 52.0234 46.016 51.5312 46.016 50.9531V45.5469H46.9457V50.9688C46.9457 51.4219 46.9951 51.7995 47.0941 52.1016C47.1983 52.4036 47.3389 52.6458 47.516 52.8281C47.6983 53.0104 47.9066 53.1406 48.141 53.2188C48.3753 53.2969 48.6279 53.3359 48.8988 53.3359C49.5863 53.3359 50.1279 53.2031 50.5238 52.9375C50.9248 52.6719 51.2087 52.3229 51.3753 51.8906C51.5472 51.4531 51.6332 50.9844 51.6332 50.4844ZM55.7738 46.9453V54H54.8441V45.5469H55.7503L55.7738 46.9453ZM58.766 45.4844L58.7425 46.3438C58.6384 46.3281 58.5368 46.3151 58.4378 46.3047C58.3389 46.2943 58.2321 46.2891 58.1175 46.2891C57.7113 46.2891 57.3545 46.3646 57.0472 46.5156C56.7451 46.6615 56.4899 46.8672 56.2816 47.1328C56.0733 47.3932 55.9144 47.7005 55.805 48.0547C55.6957 48.4036 55.6332 48.7786 55.6175 49.1797L55.2738 49.3125C55.2738 48.7604 55.3311 48.2474 55.4457 47.7734C55.5602 47.2995 55.7347 46.8854 55.9691 46.5312C56.2087 46.1719 56.5082 45.8932 56.8675 45.6953C57.2321 45.4922 57.6592 45.3906 58.1488 45.3906C58.2686 45.3906 58.3858 45.401 58.5003 45.4219C58.6201 45.4375 58.7087 45.4583 58.766 45.4844ZM69.2035 51.8438C69.2035 51.6146 69.1462 51.388 69.0316 51.1641C68.917 50.9401 68.6957 50.7344 68.3675 50.5469C68.0446 50.3594 67.5681 50.2005 66.9378 50.0703C66.4691 49.9661 66.0498 49.849 65.68 49.7188C65.3154 49.5885 65.0082 49.4323 64.7582 49.25C64.5082 49.0677 64.3181 48.849 64.1878 48.5938C64.0576 48.3385 63.9925 48.0365 63.9925 47.6875C63.9925 47.375 64.0602 47.0807 64.1957 46.8047C64.3363 46.5234 64.5342 46.2786 64.7894 46.0703C65.0498 45.8568 65.3623 45.6901 65.7269 45.5703C66.0967 45.4505 66.5108 45.3906 66.9691 45.3906C67.6201 45.3906 68.1774 45.5026 68.641 45.7266C69.1097 45.9453 69.4665 46.2448 69.7113 46.625C69.9613 47.0052 70.0863 47.4349 70.0863 47.9141H69.1566C69.1566 47.6224 69.0707 47.3464 68.8988 47.0859C68.7321 46.8255 68.4847 46.612 68.1566 46.4453C67.8337 46.2786 67.4378 46.1953 66.9691 46.1953C66.4847 46.1953 66.0915 46.2682 65.7894 46.4141C65.4873 46.5599 65.266 46.7448 65.1253 46.9688C64.9899 47.1927 64.9222 47.4245 64.9222 47.6641C64.9222 47.8516 64.9509 48.0234 65.0082 48.1797C65.0707 48.3307 65.18 48.4714 65.3363 48.6016C65.4977 48.7318 65.7269 48.8542 66.0238 48.9688C66.3207 49.0833 66.7061 49.1953 67.18 49.3047C67.8623 49.4557 68.4196 49.6406 68.8519 49.8594C69.2894 50.0729 69.6123 50.3385 69.8207 50.6562C70.029 50.9688 70.1332 51.349 70.1332 51.7969C70.1332 52.1458 70.0602 52.4661 69.9144 52.7578C69.7686 53.0443 69.5576 53.2917 69.2816 53.5C69.0108 53.7083 68.6826 53.8698 68.2972 53.9844C67.917 54.099 67.4899 54.1562 67.016 54.1562C66.3024 54.1562 65.6983 54.0391 65.2035 53.8047C64.7139 53.5651 64.3415 53.2526 64.0863 52.8672C63.8363 52.4766 63.7113 52.0625 63.7113 51.625H64.641C64.6722 52.0625 64.8102 52.4089 65.055 52.6641C65.2998 52.9141 65.5993 53.0911 65.9535 53.1953C66.3128 53.2995 66.667 53.3516 67.016 53.3516C67.4951 53.3516 67.8962 53.2812 68.2191 53.1406C68.542 53 68.7868 52.8151 68.9535 52.5859C69.1201 52.3568 69.2035 52.1094 69.2035 51.8438ZM77.6644 52.0469V45.5469H78.6019V54H77.7035L77.6644 52.0469ZM77.8363 50.4844L78.3207 50.4688C78.3207 51 78.2582 51.4896 78.1332 51.9375C78.0082 52.3854 77.8128 52.776 77.5472 53.1094C77.2816 53.4427 76.9378 53.7005 76.516 53.8828C76.0941 54.0651 75.5863 54.1562 74.9925 54.1562C74.5811 54.1562 74.2035 54.099 73.8597 53.9844C73.5212 53.8646 73.2295 53.6771 72.9847 53.4219C72.7399 53.1667 72.5498 52.8359 72.4144 52.4297C72.2842 52.0234 72.2191 51.5312 72.2191 50.9531V45.5469H73.1488V50.9688C73.1488 51.4219 73.1983 51.7995 73.2972 52.1016C73.4014 52.4036 73.542 52.6458 73.7191 52.8281C73.9014 53.0104 74.1097 53.1406 74.3441 53.2188C74.5785 53.2969 74.8311 53.3359 75.1019 53.3359C75.7894 53.3359 76.3311 53.2031 76.7269 52.9375C77.1279 52.6719 77.4118 52.3229 77.5785 51.8906C77.7503 51.4531 77.8363 50.9844 77.8363 50.4844ZM81.9691 47.1719V57.25H81.0316V45.5469H81.9066L81.9691 47.1719ZM87.8441 49.6953V49.8594C87.8441 50.4896 87.7712 51.0677 87.6253 51.5938C87.4795 52.1198 87.2686 52.5755 86.9925 52.9609C86.7217 53.3411 86.3858 53.6354 85.9847 53.8438C85.5837 54.0521 85.1279 54.1562 84.6175 54.1562C84.1123 54.1562 83.6618 54.0781 83.266 53.9219C82.8701 53.7656 82.529 53.5443 82.2425 53.2578C81.9613 52.9661 81.7347 52.6276 81.5628 52.2422C81.3962 51.8516 81.279 51.4245 81.2113 50.9609V48.7969C81.2894 48.2865 81.417 47.8229 81.5941 47.4062C81.7712 46.9896 81.9977 46.6302 82.2738 46.3281C82.555 46.026 82.8884 45.7943 83.2738 45.6328C83.6592 45.4714 84.0993 45.3906 84.5941 45.3906C85.1097 45.3906 85.5681 45.4922 85.9691 45.6953C86.3753 45.8932 86.7165 46.1823 86.9925 46.5625C87.2738 46.9375 87.4847 47.3906 87.6253 47.9219C87.7712 48.4479 87.8441 49.0391 87.8441 49.6953ZM86.9066 49.8594V49.6953C86.9066 49.2005 86.8545 48.7422 86.7503 48.3203C86.6514 47.8984 86.4977 47.5312 86.2894 47.2188C86.0863 46.901 85.8259 46.6536 85.5082 46.4766C85.1957 46.2995 84.8233 46.2109 84.391 46.2109C83.9431 46.2109 83.5602 46.2865 83.2425 46.4375C82.93 46.5833 82.6696 46.7786 82.4613 47.0234C82.2529 47.263 82.0889 47.526 81.9691 47.8125C81.8493 48.099 81.7608 48.3802 81.7035 48.6562V51.1484C81.8024 51.5443 81.9613 51.9115 82.18 52.25C82.3988 52.5833 82.6904 52.8516 83.055 53.0547C83.4248 53.2526 83.8753 53.3516 84.4066 53.3516C84.8337 53.3516 85.2035 53.263 85.516 53.0859C85.8285 52.9089 86.0863 52.6615 86.2894 52.3438C86.4977 52.026 86.6514 51.6562 86.7503 51.2344C86.8545 50.8125 86.9066 50.3542 86.9066 49.8594ZM90.8441 47.1719V57.25H89.9066V45.5469H90.7816L90.8441 47.1719ZM96.7191 49.6953V49.8594C96.7191 50.4896 96.6462 51.0677 96.5003 51.5938C96.3545 52.1198 96.1436 52.5755 95.8675 52.9609C95.5967 53.3411 95.2608 53.6354 94.8597 53.8438C94.4587 54.0521 94.0029 54.1562 93.4925 54.1562C92.9873 54.1562 92.5368 54.0781 92.141 53.9219C91.7451 53.7656 91.404 53.5443 91.1175 53.2578C90.8363 52.9661 90.6097 52.6276 90.4378 52.2422C90.2712 51.8516 90.154 51.4245 90.0863 50.9609V48.7969C90.1644 48.2865 90.292 47.8229 90.4691 47.4062C90.6462 46.9896 90.8727 46.6302 91.1488 46.3281C91.43 46.026 91.7634 45.7943 92.1488 45.6328C92.5342 45.4714 92.9743 45.3906 93.4691 45.3906C93.9847 45.3906 94.4431 45.4922 94.8441 45.6953C95.2503 45.8932 95.5915 46.1823 95.8675 46.5625C96.1488 46.9375 96.3597 47.3906 96.5003 47.9219C96.6462 48.4479 96.7191 49.0391 96.7191 49.6953ZM95.7816 49.8594V49.6953C95.7816 49.2005 95.7295 48.7422 95.6253 48.3203C95.5264 47.8984 95.3727 47.5312 95.1644 47.2188C94.9613 46.901 94.7009 46.6536 94.3832 46.4766C94.0707 46.2995 93.6983 46.2109 93.266 46.2109C92.8181 46.2109 92.4352 46.2865 92.1175 46.4375C91.805 46.5833 91.5446 46.7786 91.3363 47.0234C91.1279 47.263 90.9639 47.526 90.8441 47.8125C90.7243 48.099 90.6358 48.3802 90.5785 48.6562V51.1484C90.6774 51.5443 90.8363 51.9115 91.055 52.25C91.2738 52.5833 91.5654 52.8516 91.93 53.0547C92.2998 53.2526 92.7503 53.3516 93.2816 53.3516C93.7087 53.3516 94.0785 53.263 94.391 53.0859C94.7035 52.9089 94.9613 52.6615 95.1644 52.3438C95.3727 52.026 95.5264 51.6562 95.6253 51.2344C95.7295 50.8125 95.7816 50.3542 95.7816 49.8594ZM98.2816 49.9062V49.6484C98.2816 49.0339 98.3701 48.4661 98.5472 47.9453C98.7243 47.4245 98.9769 46.974 99.305 46.5938C99.6384 46.2135 100.037 45.9193 100.5 45.7109C100.964 45.4974 101.48 45.3906 102.047 45.3906C102.62 45.3906 103.138 45.4974 103.602 45.7109C104.065 45.9193 104.464 46.2135 104.797 46.5938C105.131 46.974 105.386 47.4245 105.563 47.9453C105.74 48.4661 105.828 49.0339 105.828 49.6484V49.9062C105.828 50.5208 105.74 51.0885 105.563 51.6094C105.386 52.125 105.131 52.5729 104.797 52.9531C104.469 53.3333 104.073 53.6302 103.61 53.8438C103.146 54.0521 102.631 54.1562 102.063 54.1562C101.49 54.1562 100.972 54.0521 100.508 53.8438C100.045 53.6302 99.6462 53.3333 99.3128 52.9531C98.9795 52.5729 98.7243 52.125 98.5472 51.6094C98.3701 51.0885 98.2816 50.5208 98.2816 49.9062ZM99.2113 49.6484V49.9062C99.2113 50.3698 99.2738 50.8099 99.3988 51.2266C99.5238 51.638 99.7061 52.0052 99.9457 52.3281C100.185 52.6458 100.482 52.8958 100.836 53.0781C101.19 53.2604 101.599 53.3516 102.063 53.3516C102.521 53.3516 102.925 53.2604 103.274 53.0781C103.628 52.8958 103.925 52.6458 104.164 52.3281C104.404 52.0052 104.584 51.638 104.703 51.2266C104.828 50.8099 104.891 50.3698 104.891 49.9062V49.6484C104.891 49.1901 104.828 48.7552 104.703 48.3438C104.584 47.9323 104.401 47.5651 104.157 47.2422C103.917 46.9193 103.62 46.6641 103.266 46.4766C102.912 46.2891 102.506 46.1953 102.047 46.1953C101.589 46.1953 101.183 46.2891 100.828 46.4766C100.48 46.6641 100.183 46.9193 99.9378 47.2422C99.6983 47.5651 99.516 47.9323 99.391 48.3438C99.2712 48.7552 99.2113 49.1901 99.2113 49.6484ZM108.696 46.9453V54H107.766V45.5469H108.672L108.696 46.9453ZM111.688 45.4844L111.664 46.3438C111.56 46.3281 111.459 46.3151 111.36 46.3047C111.261 46.2943 111.154 46.2891 111.039 46.2891C110.633 46.2891 110.276 46.3646 109.969 46.5156C109.667 46.6615 109.412 46.8672 109.203 47.1328C108.995 47.3932 108.836 47.7005 108.727 48.0547C108.618 48.4036 108.555 48.7786 108.539 49.1797L108.196 49.3125C108.196 48.7604 108.253 48.2474 108.368 47.7734C108.482 47.2995 108.657 46.8854 108.891 46.5312C109.131 46.1719 109.43 45.8932 109.789 45.6953C110.154 45.4922 110.581 45.3906 111.071 45.3906C111.19 45.3906 111.308 45.401 111.422 45.4219C111.542 45.4375 111.631 45.4583 111.688 45.4844ZM116.743 45.5469V46.3125H112.508V45.5469H116.743ZM114.063 43.375H114.993V51.9453C114.993 52.3359 115.045 52.6302 115.149 52.8281C115.253 53.026 115.388 53.1589 115.555 53.2266C115.722 53.2943 115.901 53.3281 116.094 53.3281C116.235 53.3281 116.37 53.3203 116.5 53.3047C116.631 53.2839 116.748 53.263 116.852 53.2422L116.891 54.0312C116.776 54.0677 116.628 54.0964 116.446 54.1172C116.263 54.1432 116.081 54.1562 115.899 54.1562C115.539 54.1562 115.222 54.0911 114.946 53.9609C114.67 53.8255 114.453 53.5964 114.297 53.2734C114.141 52.9453 114.063 52.5 114.063 51.9375V43.375ZM123.493 47.2969V54H122.555V45.5469H123.453L123.493 47.2969ZM123.321 49.25L122.868 49.0156C122.899 48.5156 122.993 48.0469 123.149 47.6094C123.31 47.1719 123.534 46.7865 123.821 46.4531C124.107 46.1198 124.451 45.8594 124.852 45.6719C125.253 45.4844 125.709 45.3906 126.219 45.3906C126.631 45.3906 127.003 45.4479 127.336 45.5625C127.675 45.6719 127.961 45.8464 128.196 46.0859C128.435 46.3203 128.62 46.6276 128.75 47.0078C128.881 47.388 128.946 47.8438 128.946 48.375V54H128.016V48.4062C128.016 47.8438 127.927 47.4036 127.75 47.0859C127.578 46.7682 127.336 46.5417 127.024 46.4062C126.716 46.2708 126.36 46.2031 125.953 46.2031C125.474 46.2031 125.068 46.3021 124.735 46.5C124.407 46.6927 124.138 46.9453 123.93 47.2578C123.727 47.5651 123.576 47.8958 123.477 48.25C123.378 48.599 123.326 48.9323 123.321 49.25ZM128.938 48.5156L128.313 48.5312C128.339 48.1198 128.433 47.7266 128.594 47.3516C128.761 46.9766 128.987 46.6432 129.274 46.3516C129.56 46.0547 129.901 45.8203 130.297 45.6484C130.698 45.4766 131.149 45.3906 131.649 45.3906C132.086 45.3906 132.477 45.4505 132.821 45.5703C133.164 45.6849 133.453 45.8698 133.688 46.125C133.927 46.375 134.11 46.6953 134.235 47.0859C134.36 47.4766 134.422 47.9453 134.422 48.4922V54H133.485V48.4844C133.485 47.8854 133.396 47.4219 133.219 47.0938C133.047 46.7604 132.808 46.5286 132.5 46.3984C132.193 46.2682 131.834 46.2031 131.422 46.2031C131.016 46.2083 130.659 46.2839 130.352 46.4297C130.045 46.5703 129.787 46.7578 129.578 46.9922C129.375 47.2214 129.219 47.4688 129.11 47.7344C129.006 48 128.948 48.2604 128.938 48.5156ZM141.938 52.4844V48.125C141.938 47.724 141.855 47.3776 141.688 47.0859C141.521 46.7943 141.276 46.5703 140.953 46.4141C140.631 46.2578 140.232 46.1797 139.758 46.1797C139.321 46.1797 138.93 46.2578 138.586 46.4141C138.248 46.5651 137.98 46.7708 137.782 47.0312C137.589 47.2865 137.493 47.5703 137.493 47.8828L136.555 47.875C136.555 47.5573 136.633 47.25 136.789 46.9531C136.946 46.6562 137.167 46.3906 137.453 46.1562C137.74 45.9219 138.081 45.737 138.477 45.6016C138.878 45.4609 139.318 45.3906 139.797 45.3906C140.401 45.3906 140.933 45.4922 141.391 45.6953C141.855 45.8984 142.216 46.2031 142.477 46.6094C142.737 47.0156 142.868 47.526 142.868 48.1406V52.2266C142.868 52.5182 142.888 52.8203 142.93 53.1328C142.977 53.4453 143.042 53.7031 143.125 53.9062V54H142.133C142.071 53.8125 142.021 53.5781 141.985 53.2969C141.953 53.0104 141.938 52.7396 141.938 52.4844ZM142.157 49.0781L142.172 49.7969H140.336C139.857 49.7969 139.427 49.8411 139.047 49.9297C138.672 50.013 138.355 50.138 138.094 50.3047C137.834 50.4661 137.633 50.6615 137.493 50.8906C137.357 51.1198 137.289 51.3802 137.289 51.6719C137.289 51.974 137.365 52.25 137.516 52.5C137.672 52.75 137.891 52.9505 138.172 53.1016C138.459 53.2474 138.797 53.3203 139.188 53.3203C139.709 53.3203 140.167 53.224 140.563 53.0312C140.964 52.8385 141.295 52.5859 141.555 52.2734C141.815 51.9609 141.99 51.6198 142.078 51.25L142.485 51.7891C142.417 52.0495 142.292 52.3177 142.11 52.5938C141.933 52.8646 141.701 53.1198 141.414 53.3594C141.128 53.5938 140.789 53.7865 140.399 53.9375C140.013 54.0833 139.576 54.1562 139.086 54.1562C138.534 54.1562 138.052 54.0521 137.641 53.8438C137.235 53.6354 136.917 53.3516 136.688 52.9922C136.464 52.6276 136.352 52.2161 136.352 51.7578C136.352 51.3411 136.44 50.9688 136.618 50.6406C136.795 50.3073 137.05 50.026 137.383 49.7969C137.722 49.5625 138.128 49.3854 138.602 49.2656C139.081 49.1406 139.618 49.0781 140.211 49.0781H142.157ZM146.305 47.3516V54H145.375V45.5469H146.266L146.305 47.3516ZM146.094 49.25L145.68 49.0156C145.711 48.5156 145.813 48.0469 145.985 47.6094C146.157 47.1719 146.388 46.7865 146.68 46.4531C146.977 46.1198 147.323 45.8594 147.719 45.6719C148.12 45.4844 148.563 45.3906 149.047 45.3906C149.469 45.3906 149.847 45.4479 150.18 45.5625C150.513 45.6771 150.797 45.8594 151.032 46.1094C151.266 46.3594 151.443 46.6797 151.563 47.0703C151.688 47.4609 151.75 47.9375 151.75 48.5V54H150.813V48.4922C150.813 47.9089 150.732 47.4531 150.571 47.125C150.409 46.7917 150.18 46.5547 149.883 46.4141C149.586 46.2734 149.235 46.2031 148.828 46.2031C148.381 46.2031 147.987 46.3021 147.649 46.5C147.315 46.6927 147.034 46.9453 146.805 47.2578C146.581 47.5651 146.409 47.8958 146.289 48.25C146.17 48.599 146.105 48.9323 146.094 49.25ZM159.313 52.4844V48.125C159.313 47.724 159.23 47.3776 159.063 47.0859C158.896 46.7943 158.651 46.5703 158.328 46.4141C158.006 46.2578 157.607 46.1797 157.133 46.1797C156.696 46.1797 156.305 46.2578 155.961 46.4141C155.623 46.5651 155.355 46.7708 155.157 47.0312C154.964 47.2865 154.868 47.5703 154.868 47.8828L153.93 47.875C153.93 47.5573 154.008 47.25 154.164 46.9531C154.321 46.6562 154.542 46.3906 154.828 46.1562C155.115 45.9219 155.456 45.737 155.852 45.6016C156.253 45.4609 156.693 45.3906 157.172 45.3906C157.776 45.3906 158.308 45.4922 158.766 45.6953C159.23 45.8984 159.591 46.2031 159.852 46.6094C160.112 47.0156 160.243 47.526 160.243 48.1406V52.2266C160.243 52.5182 160.263 52.8203 160.305 53.1328C160.352 53.4453 160.417 53.7031 160.5 53.9062V54H159.508C159.446 53.8125 159.396 53.5781 159.36 53.2969C159.328 53.0104 159.313 52.7396 159.313 52.4844ZM159.532 49.0781L159.547 49.7969H157.711C157.232 49.7969 156.802 49.8411 156.422 49.9297C156.047 50.013 155.73 50.138 155.469 50.3047C155.209 50.4661 155.008 50.6615 154.868 50.8906C154.732 51.1198 154.664 51.3802 154.664 51.6719C154.664 51.974 154.74 52.25 154.891 52.5C155.047 52.75 155.266 52.9505 155.547 53.1016C155.834 53.2474 156.172 53.3203 156.563 53.3203C157.084 53.3203 157.542 53.224 157.938 53.0312C158.339 52.8385 158.67 52.5859 158.93 52.2734C159.19 51.9609 159.365 51.6198 159.453 51.25L159.86 51.7891C159.792 52.0495 159.667 52.3177 159.485 52.5938C159.308 52.8646 159.076 53.1198 158.789 53.3594C158.503 53.5938 158.164 53.7865 157.774 53.9375C157.388 54.0833 156.951 54.1562 156.461 54.1562C155.909 54.1562 155.427 54.0521 155.016 53.8438C154.61 53.6354 154.292 53.3516 154.063 52.9922C153.839 52.6276 153.727 52.2161 153.727 51.7578C153.727 51.3411 153.815 50.9688 153.993 50.6406C154.17 50.3073 154.425 50.026 154.758 49.7969C155.097 49.5625 155.503 49.3854 155.977 49.2656C156.456 49.1406 156.993 49.0781 157.586 49.0781H159.532ZM168.313 45.5469H169.18V53.8516C169.18 54.5859 169.039 55.2161 168.758 55.7422C168.482 56.2682 168.089 56.6719 167.578 56.9531C167.073 57.2344 166.477 57.375 165.789 57.375C165.44 57.375 165.081 57.3203 164.711 57.2109C164.347 57.1068 164 56.9453 163.672 56.7266C163.349 56.513 163.073 56.2474 162.844 55.9297L163.368 55.3594C163.711 55.776 164.078 56.0807 164.469 56.2734C164.86 56.4714 165.282 56.5703 165.735 56.5703C166.271 56.5703 166.724 56.4635 167.094 56.25C167.469 56.0365 167.753 55.7292 167.946 55.3281C168.144 54.9271 168.243 54.4453 168.243 53.8828V47.4062L168.313 45.5469ZM162.375 49.8594V49.6953C162.375 49.0391 162.448 48.4479 162.594 47.9219C162.745 47.3906 162.961 46.9375 163.243 46.5625C163.524 46.1823 163.865 45.8932 164.266 45.6953C164.672 45.4922 165.131 45.3906 165.641 45.3906C166.131 45.3906 166.565 45.4714 166.946 45.6328C167.326 45.7943 167.654 46.026 167.93 46.3281C168.206 46.6302 168.427 46.9896 168.594 47.4062C168.766 47.8229 168.891 48.2865 168.969 48.7969V50.8828C168.907 51.362 168.792 51.8021 168.625 52.2031C168.459 52.599 168.237 52.9453 167.961 53.2422C167.685 53.5339 167.352 53.7604 166.961 53.9219C166.576 54.0781 166.131 54.1562 165.625 54.1562C165.12 54.1562 164.667 54.0521 164.266 53.8438C163.865 53.6354 163.524 53.3411 163.243 52.9609C162.961 52.5755 162.745 52.1198 162.594 51.5938C162.448 51.0677 162.375 50.4896 162.375 49.8594ZM163.313 49.6953V49.8594C163.313 50.3542 163.362 50.8125 163.461 51.2344C163.56 51.6562 163.711 52.0234 163.914 52.3359C164.118 52.6484 164.375 52.8932 164.688 53.0703C165 53.2474 165.368 53.3359 165.789 53.3359C166.326 53.3359 166.776 53.2344 167.141 53.0312C167.506 52.8229 167.795 52.5495 168.008 52.2109C168.222 51.8672 168.378 51.4922 168.477 51.0859V48.6562C168.42 48.3802 168.331 48.099 168.211 47.8125C168.097 47.526 167.935 47.263 167.727 47.0234C167.524 46.7786 167.263 46.5833 166.946 46.4375C166.633 46.2865 166.253 46.2109 165.805 46.2109C165.378 46.2109 165.006 46.2995 164.688 46.4766C164.375 46.6536 164.118 46.901 163.914 47.2188C163.711 47.5312 163.56 47.8984 163.461 48.3203C163.362 48.7422 163.313 49.2005 163.313 49.6953ZM174.891 54.1562C174.339 54.1562 173.831 54.0547 173.368 53.8516C172.909 53.6484 172.508 53.362 172.164 52.9922C171.826 52.6224 171.563 52.1849 171.375 51.6797C171.193 51.1693 171.102 50.612 171.102 50.0078V49.6719C171.102 49.0208 171.198 48.4323 171.391 47.9062C171.584 47.3802 171.849 46.9297 172.188 46.5547C172.526 46.1797 172.912 45.8932 173.344 45.6953C173.782 45.4922 174.24 45.3906 174.719 45.3906C175.256 45.3906 175.732 45.487 176.149 45.6797C176.565 45.8672 176.914 46.1354 177.196 46.4844C177.482 46.8281 177.698 47.237 177.844 47.7109C177.99 48.1797 178.063 48.6979 178.063 49.2656V49.8359H171.664V49.0391H177.133V48.9297C177.123 48.4557 177.026 48.013 176.844 47.6016C176.667 47.1849 176.401 46.8464 176.047 46.5859C175.693 46.3255 175.25 46.1953 174.719 46.1953C174.323 46.1953 173.959 46.2786 173.625 46.4453C173.297 46.612 173.013 46.8516 172.774 47.1641C172.539 47.4714 172.357 47.8385 172.227 48.2656C172.102 48.6875 172.039 49.1562 172.039 49.6719V50.0078C172.039 50.4766 172.107 50.9141 172.243 51.3203C172.383 51.7214 172.581 52.0755 172.836 52.3828C173.097 52.6901 173.404 52.9297 173.758 53.1016C174.112 53.2734 174.503 53.3594 174.93 53.3594C175.43 53.3594 175.873 53.2682 176.258 53.0859C176.644 52.8984 176.99 52.6042 177.297 52.2031L177.883 52.6562C177.701 52.9271 177.472 53.1771 177.196 53.4062C176.925 53.6354 176.599 53.8177 176.219 53.9531C175.839 54.0885 175.396 54.1562 174.891 54.1562ZM180.836 46.9453V54H179.907V45.5469H180.813L180.836 46.9453ZM183.828 45.4844L183.805 46.3438C183.701 46.3281 183.599 46.3151 183.5 46.3047C183.401 46.2943 183.295 46.2891 183.18 46.2891C182.774 46.2891 182.417 46.3646 182.11 46.5156C181.808 46.6615 181.552 46.8672 181.344 47.1328C181.136 47.3932 180.977 47.7005 180.868 48.0547C180.758 48.4036 180.696 48.7786 180.68 49.1797L180.336 49.3125C180.336 48.7604 180.394 48.2474 180.508 47.7734C180.623 47.2995 180.797 46.8854 181.032 46.5312C181.271 46.1719 181.571 45.8932 181.93 45.6953C182.295 45.4922 182.722 45.3906 183.211 45.3906C183.331 45.3906 183.448 45.401 183.563 45.4219C183.683 45.4375 183.771 45.4583 183.828 45.4844ZM190.36 51.8438C190.36 51.6146 190.302 51.388 190.188 51.1641C190.073 50.9401 189.852 50.7344 189.524 50.5469C189.201 50.3594 188.724 50.2005 188.094 50.0703C187.625 49.9661 187.206 49.849 186.836 49.7188C186.472 49.5885 186.164 49.4323 185.914 49.25C185.664 49.0677 185.474 48.849 185.344 48.5938C185.214 48.3385 185.149 48.0365 185.149 47.6875C185.149 47.375 185.216 47.0807 185.352 46.8047C185.493 46.5234 185.69 46.2786 185.946 46.0703C186.206 45.8568 186.519 45.6901 186.883 45.5703C187.253 45.4505 187.667 45.3906 188.125 45.3906C188.776 45.3906 189.334 45.5026 189.797 45.7266C190.266 45.9453 190.623 46.2448 190.868 46.625C191.118 47.0052 191.243 47.4349 191.243 47.9141H190.313C190.313 47.6224 190.227 47.3464 190.055 47.0859C189.888 46.8255 189.641 46.612 189.313 46.4453C188.99 46.2786 188.594 46.1953 188.125 46.1953C187.641 46.1953 187.248 46.2682 186.946 46.4141C186.644 46.5599 186.422 46.7448 186.282 46.9688C186.146 47.1927 186.078 47.4245 186.078 47.6641C186.078 47.8516 186.107 48.0234 186.164 48.1797C186.227 48.3307 186.336 48.4714 186.493 48.6016C186.654 48.7318 186.883 48.8542 187.18 48.9688C187.477 49.0833 187.862 49.1953 188.336 49.3047C189.019 49.4557 189.576 49.6406 190.008 49.8594C190.446 50.0729 190.769 50.3385 190.977 50.6562C191.185 50.9688 191.289 51.349 191.289 51.7969C191.289 52.1458 191.216 52.4661 191.071 52.7578C190.925 53.0443 190.714 53.2917 190.438 53.5C190.167 53.7083 189.839 53.8698 189.453 53.9844C189.073 54.099 188.646 54.1562 188.172 54.1562C187.459 54.1562 186.855 54.0391 186.36 53.8047C185.87 53.5651 185.498 53.2526 185.243 52.8672C184.993 52.4766 184.868 52.0625 184.868 51.625H185.797C185.828 52.0625 185.966 52.4089 186.211 52.6641C186.456 52.9141 186.756 53.0911 187.11 53.1953C187.469 53.2995 187.823 53.3516 188.172 53.3516C188.651 53.3516 189.052 53.2812 189.375 53.1406C189.698 53 189.943 52.8151 190.11 52.5859C190.276 52.3568 190.36 52.1094 190.36 51.8438ZM55.0628 69.4844V65.125C55.0628 64.724 54.9795 64.3776 54.8128 64.0859C54.6462 63.7943 54.4014 63.5703 54.0785 63.4141C53.7556 63.2578 53.3571 63.1797 52.8832 63.1797C52.4457 63.1797 52.055 63.2578 51.7113 63.4141C51.3727 63.5651 51.1045 63.7708 50.9066 64.0312C50.7139 64.2865 50.6175 64.5703 50.6175 64.8828L49.68 64.875C49.68 64.5573 49.7582 64.25 49.9144 63.9531C50.0707 63.6562 50.292 63.3906 50.5785 63.1562C50.8649 62.9219 51.2061 62.737 51.6019 62.6016C52.0029 62.4609 52.4431 62.3906 52.9222 62.3906C53.5264 62.3906 54.0576 62.4922 54.516 62.6953C54.9795 62.8984 55.3415 63.2031 55.6019 63.6094C55.8623 64.0156 55.9925 64.526 55.9925 65.1406V69.2266C55.9925 69.5182 56.0134 69.8203 56.055 70.1328C56.1019 70.4453 56.167 70.7031 56.2503 70.9062V71H55.2582C55.1957 70.8125 55.1462 70.5781 55.1097 70.2969C55.0785 70.0104 55.0628 69.7396 55.0628 69.4844ZM55.2816 66.0781L55.2972 66.7969H53.4613C52.9821 66.7969 52.5524 66.8411 52.1722 66.9297C51.7972 67.013 51.4795 67.138 51.2191 67.3047C50.9587 67.4661 50.7582 67.6615 50.6175 67.8906C50.4821 68.1198 50.4144 68.3802 50.4144 68.6719C50.4144 68.974 50.4899 69.25 50.641 69.5C50.7972 69.75 51.016 69.9505 51.2972 70.1016C51.5837 70.2474 51.9222 70.3203 52.3128 70.3203C52.8337 70.3203 53.292 70.224 53.6878 70.0312C54.0889 69.8385 54.4196 69.5859 54.68 69.2734C54.9404 68.9609 55.1149 68.6198 55.2035 68.25L55.6097 68.7891C55.542 69.0495 55.417 69.3177 55.2347 69.5938C55.0576 69.8646 54.8259 70.1198 54.5394 70.3594C54.2529 70.5938 53.9144 70.7865 53.5238 70.9375C53.1384 71.0833 52.7009 71.1562 52.2113 71.1562C51.6592 71.1562 51.1774 71.0521 50.766 70.8438C50.3597 70.6354 50.042 70.3516 49.8128 69.9922C49.5889 69.6276 49.4769 69.2161 49.4769 68.7578C49.4769 68.3411 49.5654 67.9688 49.7425 67.6406C49.9196 67.3073 50.1748 67.026 50.5082 66.7969C50.8467 66.5625 51.2529 66.3854 51.7269 66.2656C52.2061 66.1406 52.7425 66.0781 53.3363 66.0781H55.2816ZM59.43 63.9453V71H58.5003V62.5469H59.4066L59.43 63.9453ZM62.4222 62.4844L62.3988 63.3438C62.2946 63.3281 62.1931 63.3151 62.0941 63.3047C61.9951 63.2943 61.8884 63.2891 61.7738 63.2891C61.3675 63.2891 61.0108 63.3646 60.7035 63.5156C60.4014 63.6615 60.1462 63.8672 59.9378 64.1328C59.7295 64.3932 59.5707 64.7005 59.4613 65.0547C59.3519 65.4036 59.2894 65.7786 59.2738 66.1797L58.93 66.3125C58.93 65.7604 58.9873 65.2474 59.1019 64.7734C59.2165 64.2995 59.391 63.8854 59.6253 63.5312C59.8649 63.1719 60.1644 62.8932 60.5238 62.6953C60.8884 62.4922 61.3154 62.3906 61.805 62.3906C61.9248 62.3906 62.042 62.401 62.1566 62.4219C62.2764 62.4375 62.3649 62.4583 62.4222 62.4844ZM67.0003 71.1562C66.4483 71.1562 65.9404 71.0547 65.4769 70.8516C65.0186 70.6484 64.6175 70.362 64.2738 69.9922C63.9352 69.6224 63.6722 69.1849 63.4847 68.6797C63.3024 68.1693 63.2113 67.612 63.2113 67.0078V66.6719C63.2113 66.0208 63.3076 65.4323 63.5003 64.9062C63.6931 64.3802 63.9587 63.9297 64.2972 63.5547C64.6358 63.1797 65.0212 62.8932 65.4535 62.6953C65.891 62.4922 66.3493 62.3906 66.8285 62.3906C67.3649 62.3906 67.8415 62.487 68.2582 62.6797C68.6748 62.8672 69.0238 63.1354 69.305 63.4844C69.5915 63.8281 69.8076 64.237 69.9535 64.7109C70.0993 65.1797 70.1722 65.6979 70.1722 66.2656V66.8359H63.7738V66.0391H69.2425V65.9297C69.2321 65.4557 69.1358 65.013 68.9535 64.6016C68.7764 64.1849 68.5108 63.8464 68.1566 63.5859C67.8024 63.3255 67.3597 63.1953 66.8285 63.1953C66.4326 63.1953 66.0681 63.2786 65.7347 63.4453C65.4066 63.612 65.1227 63.8516 64.8832 64.1641C64.6488 64.4714 64.4665 64.8385 64.3363 65.2656C64.2113 65.6875 64.1488 66.1562 64.1488 66.6719V67.0078C64.1488 67.4766 64.2165 67.9141 64.3519 68.3203C64.4925 68.7214 64.6904 69.0755 64.9457 69.3828C65.2061 69.6901 65.5134 69.9297 65.8675 70.1016C66.2217 70.2734 66.6123 70.3594 67.0394 70.3594C67.5394 70.3594 67.9821 70.2682 68.3675 70.0859C68.7529 69.8984 69.0993 69.6042 69.4066 69.2031L69.9925 69.6562C69.8102 69.9271 69.5811 70.1771 69.305 70.4062C69.0342 70.6354 68.7087 70.8177 68.3285 70.9531C67.9483 71.0885 67.5056 71.1562 67.0003 71.1562ZM81.0628 69.4844V65.125C81.0628 64.724 80.9795 64.3776 80.8128 64.0859C80.6462 63.7943 80.4014 63.5703 80.0785 63.4141C79.7556 63.2578 79.3571 63.1797 78.8832 63.1797C78.4457 63.1797 78.055 63.2578 77.7113 63.4141C77.3727 63.5651 77.1045 63.7708 76.9066 64.0312C76.7139 64.2865 76.6175 64.5703 76.6175 64.8828L75.68 64.875C75.68 64.5573 75.7582 64.25 75.9144 63.9531C76.0707 63.6562 76.292 63.3906 76.5785 63.1562C76.8649 62.9219 77.2061 62.737 77.6019 62.6016C78.0029 62.4609 78.4431 62.3906 78.9222 62.3906C79.5264 62.3906 80.0576 62.4922 80.516 62.6953C80.9795 62.8984 81.3415 63.2031 81.6019 63.6094C81.8623 64.0156 81.9925 64.526 81.9925 65.1406V69.2266C81.9925 69.5182 82.0134 69.8203 82.055 70.1328C82.1019 70.4453 82.167 70.7031 82.2503 70.9062V71H81.2582C81.1957 70.8125 81.1462 70.5781 81.1097 70.2969C81.0785 70.0104 81.0628 69.7396 81.0628 69.4844ZM81.2816 66.0781L81.2972 66.7969H79.4613C78.9821 66.7969 78.5524 66.8411 78.1722 66.9297C77.7972 67.013 77.4795 67.138 77.2191 67.3047C76.9587 67.4661 76.7582 67.6615 76.6175 67.8906C76.4821 68.1198 76.4144 68.3802 76.4144 68.6719C76.4144 68.974 76.4899 69.25 76.641 69.5C76.7972 69.75 77.016 69.9505 77.2972 70.1016C77.5837 70.2474 77.9222 70.3203 78.3128 70.3203C78.8337 70.3203 79.292 70.224 79.6878 70.0312C80.0889 69.8385 80.4196 69.5859 80.68 69.2734C80.9404 68.9609 81.1149 68.6198 81.2035 68.25L81.6097 68.7891C81.542 69.0495 81.417 69.3177 81.2347 69.5938C81.0576 69.8646 80.8259 70.1198 80.5394 70.3594C80.2529 70.5938 79.9144 70.7865 79.5238 70.9375C79.1384 71.0833 78.7009 71.1562 78.2113 71.1562C77.6592 71.1562 77.1774 71.0521 76.766 70.8438C76.3597 70.6354 76.042 70.3516 75.8128 69.9922C75.5889 69.6276 75.4769 69.2161 75.4769 68.7578C75.4769 68.3411 75.5654 67.9688 75.7425 67.6406C75.9196 67.3073 76.1748 67.026 76.5082 66.7969C76.8467 66.5625 77.2529 66.3854 77.7269 66.2656C78.2061 66.1406 78.7425 66.0781 79.3363 66.0781H81.2816ZM85.5394 59V71H84.6097V59H85.5394ZM90.4378 69.0234L92.4769 62.5469H93.1332L92.7425 64.2891L90.6097 71H89.9535L90.4378 69.0234ZM88.3207 62.5469L90.1097 69.0625L90.4925 71H89.8128L87.3597 62.5469H88.3207ZM95.6722 69.0391L97.4144 62.5469H98.3753L95.9222 71H95.2503L95.6722 69.0391ZM93.266 62.5469L95.2738 68.9688L95.7816 71H95.1253L92.9457 64.2812L92.5785 62.5469H93.266ZM105.313 69.4844V65.125C105.313 64.724 105.23 64.3776 105.063 64.0859C104.896 63.7943 104.651 63.5703 104.328 63.4141C104.006 63.2578 103.607 63.1797 103.133 63.1797C102.696 63.1797 102.305 63.2578 101.961 63.4141C101.623 63.5651 101.355 63.7708 101.157 64.0312C100.964 64.2865 100.868 64.5703 100.868 64.8828L99.93 64.875C99.93 64.5573 100.008 64.25 100.164 63.9531C100.321 63.6562 100.542 63.3906 100.828 63.1562C101.115 62.9219 101.456 62.737 101.852 62.6016C102.253 62.4609 102.693 62.3906 103.172 62.3906C103.776 62.3906 104.308 62.4922 104.766 62.6953C105.23 62.8984 105.591 63.2031 105.852 63.6094C106.112 64.0156 106.243 64.526 106.243 65.1406V69.2266C106.243 69.5182 106.263 69.8203 106.305 70.1328C106.352 70.4453 106.417 70.7031 106.5 70.9062V71H105.508C105.446 70.8125 105.396 70.5781 105.36 70.2969C105.328 70.0104 105.313 69.7396 105.313 69.4844ZM105.532 66.0781L105.547 66.7969H103.711C103.232 66.7969 102.802 66.8411 102.422 66.9297C102.047 67.013 101.73 67.138 101.469 67.3047C101.209 67.4661 101.008 67.6615 100.868 67.8906C100.732 68.1198 100.664 68.3802 100.664 68.6719C100.664 68.974 100.74 69.25 100.891 69.5C101.047 69.75 101.266 69.9505 101.547 70.1016C101.834 70.2474 102.172 70.3203 102.563 70.3203C103.084 70.3203 103.542 70.224 103.938 70.0312C104.339 69.8385 104.67 69.5859 104.93 69.2734C105.19 68.9609 105.365 68.6198 105.453 68.25L105.86 68.7891C105.792 69.0495 105.667 69.3177 105.485 69.5938C105.308 69.8646 105.076 70.1198 104.789 70.3594C104.503 70.5938 104.164 70.7865 103.774 70.9375C103.388 71.0833 102.951 71.1562 102.461 71.1562C101.909 71.1562 101.427 71.0521 101.016 70.8438C100.61 70.6354 100.292 70.3516 100.063 69.9922C99.8389 69.6276 99.7269 69.2161 99.7269 68.7578C99.7269 68.3411 99.8154 67.9688 99.9925 67.6406C100.17 67.3073 100.425 67.026 100.758 66.7969C101.097 66.5625 101.503 66.3854 101.977 66.2656C102.456 66.1406 102.993 66.0781 103.586 66.0781H105.532ZM111.133 70.1562L113.766 62.5469H114.774L111.196 72.3594C111.123 72.5521 111.029 72.7656 110.914 73C110.805 73.2344 110.659 73.4583 110.477 73.6719C110.3 73.8906 110.076 74.0677 109.805 74.2031C109.539 74.3438 109.214 74.4141 108.828 74.4141C108.73 74.4141 108.602 74.401 108.446 74.375C108.295 74.3542 108.185 74.3333 108.118 74.3125L108.11 73.5234C108.167 73.5391 108.25 73.5521 108.36 73.5625C108.469 73.5729 108.545 73.5781 108.586 73.5781C108.925 73.5781 109.209 73.5208 109.438 73.4062C109.672 73.2917 109.868 73.1198 110.024 72.8906C110.18 72.6667 110.318 72.3854 110.438 72.0469L111.133 70.1562ZM108.672 62.5469L111.368 69.8047L111.618 70.7812L110.938 71.1641L107.657 62.5469H108.672ZM121.297 68.8438C121.297 68.6146 121.24 68.388 121.125 68.1641C121.011 67.9401 120.789 67.7344 120.461 67.5469C120.138 67.3594 119.662 67.2005 119.032 67.0703C118.563 66.9661 118.144 66.849 117.774 66.7188C117.409 66.5885 117.102 66.4323 116.852 66.25C116.602 66.0677 116.412 65.849 116.282 65.5938C116.151 65.3385 116.086 65.0365 116.086 64.6875C116.086 64.375 116.154 64.0807 116.289 63.8047C116.43 63.5234 116.628 63.2786 116.883 63.0703C117.144 62.8568 117.456 62.6901 117.821 62.5703C118.19 62.4505 118.605 62.3906 119.063 62.3906C119.714 62.3906 120.271 62.5026 120.735 62.7266C121.203 62.9453 121.56 63.2448 121.805 63.625C122.055 64.0052 122.18 64.4349 122.18 64.9141H121.25C121.25 64.6224 121.164 64.3464 120.993 64.0859C120.826 63.8255 120.578 63.612 120.25 63.4453C119.927 63.2786 119.532 63.1953 119.063 63.1953C118.578 63.1953 118.185 63.2682 117.883 63.4141C117.581 63.5599 117.36 63.7448 117.219 63.9688C117.084 64.1927 117.016 64.4245 117.016 64.6641C117.016 64.8516 117.045 65.0234 117.102 65.1797C117.164 65.3307 117.274 65.4714 117.43 65.6016C117.591 65.7318 117.821 65.8542 118.118 65.9688C118.414 66.0833 118.8 66.1953 119.274 66.3047C119.956 66.4557 120.513 66.6406 120.946 66.8594C121.383 67.0729 121.706 67.3385 121.914 67.6562C122.123 67.9688 122.227 68.349 122.227 68.7969C122.227 69.1458 122.154 69.4661 122.008 69.7578C121.862 70.0443 121.651 70.2917 121.375 70.5C121.105 70.7083 120.776 70.8698 120.391 70.9844C120.011 71.099 119.584 71.1562 119.11 71.1562C118.396 71.1562 117.792 71.0391 117.297 70.8047C116.808 70.5651 116.435 70.2526 116.18 69.8672C115.93 69.4766 115.805 69.0625 115.805 68.625H116.735C116.766 69.0625 116.904 69.4089 117.149 69.6641C117.394 69.9141 117.693 70.0911 118.047 70.1953C118.407 70.2995 118.761 70.3516 119.11 70.3516C119.589 70.3516 119.99 70.2812 120.313 70.1406C120.636 70 120.881 69.8151 121.047 69.5859C121.214 69.3568 121.297 69.1094 121.297 68.8438ZM127.735 66.9062V66.6484C127.735 66.0339 127.823 65.4661 128 64.9453C128.177 64.4245 128.43 63.974 128.758 63.5938C129.091 63.2135 129.49 62.9193 129.953 62.7109C130.417 62.4974 130.933 62.3906 131.5 62.3906C132.073 62.3906 132.591 62.4974 133.055 62.7109C133.519 62.9193 133.917 63.2135 134.25 63.5938C134.584 63.974 134.839 64.4245 135.016 64.9453C135.193 65.4661 135.282 66.0339 135.282 66.6484V66.9062C135.282 67.5208 135.193 68.0885 135.016 68.6094C134.839 69.125 134.584 69.5729 134.25 69.9531C133.922 70.3333 133.526 70.6302 133.063 70.8438C132.599 71.0521 132.084 71.1562 131.516 71.1562C130.943 71.1562 130.425 71.0521 129.961 70.8438C129.498 70.6302 129.099 70.3333 128.766 69.9531C128.433 69.5729 128.177 69.125 128 68.6094C127.823 68.0885 127.735 67.5208 127.735 66.9062ZM128.664 66.6484V66.9062C128.664 67.3698 128.727 67.8099 128.852 68.2266C128.977 68.638 129.159 69.0052 129.399 69.3281C129.638 69.6458 129.935 69.8958 130.289 70.0781C130.644 70.2604 131.052 70.3516 131.516 70.3516C131.974 70.3516 132.378 70.2604 132.727 70.0781C133.081 69.8958 133.378 69.6458 133.618 69.3281C133.857 69.0052 134.037 68.638 134.157 68.2266C134.282 67.8099 134.344 67.3698 134.344 66.9062V66.6484C134.344 66.1901 134.282 65.7552 134.157 65.3438C134.037 64.9323 133.855 64.5651 133.61 64.2422C133.37 63.9193 133.073 63.6641 132.719 63.4766C132.365 63.2891 131.959 63.1953 131.5 63.1953C131.042 63.1953 130.636 63.2891 130.282 63.4766C129.933 63.6641 129.636 63.9193 129.391 64.2422C129.151 64.5651 128.969 64.9323 128.844 65.3438C128.724 65.7552 128.664 66.1901 128.664 66.6484ZM138.149 64.3516V71H137.219V62.5469H138.11L138.149 64.3516ZM137.938 66.25L137.524 66.0156C137.555 65.5156 137.657 65.0469 137.828 64.6094C138 64.1719 138.232 63.7865 138.524 63.4531C138.821 63.1198 139.167 62.8594 139.563 62.6719C139.964 62.4844 140.407 62.3906 140.891 62.3906C141.313 62.3906 141.69 62.4479 142.024 62.5625C142.357 62.6771 142.641 62.8594 142.875 63.1094C143.11 63.3594 143.287 63.6797 143.407 64.0703C143.532 64.4609 143.594 64.9375 143.594 65.5V71H142.657V65.4922C142.657 64.9089 142.576 64.4531 142.414 64.125C142.253 63.7917 142.024 63.5547 141.727 63.4141C141.43 63.2734 141.078 63.2031 140.672 63.2031C140.224 63.2031 139.831 63.3021 139.493 63.5C139.159 63.6927 138.878 63.9453 138.649 64.2578C138.425 64.5651 138.253 64.8958 138.133 65.25C138.013 65.599 137.948 65.9323 137.938 66.25ZM148.922 65.5781V66.3828H145.18V65.5781H148.922ZM151.649 59V71H150.719V59H151.649ZM155.243 62.5469V71H154.313V62.5469H155.243ZM154.149 60.1016C154.149 59.9245 154.203 59.776 154.313 59.6562C154.427 59.5312 154.584 59.4688 154.782 59.4688C154.98 59.4688 155.136 59.5312 155.25 59.6562C155.37 59.776 155.43 59.9245 155.43 60.1016C155.43 60.2734 155.37 60.4219 155.25 60.5469C155.136 60.6667 154.98 60.7266 154.782 60.7266C154.584 60.7266 154.427 60.6667 154.313 60.5469C154.203 60.4219 154.149 60.2734 154.149 60.1016ZM158.727 64.3516V71H157.797V62.5469H158.688L158.727 64.3516ZM158.516 66.25L158.102 66.0156C158.133 65.5156 158.235 65.0469 158.407 64.6094C158.578 64.1719 158.81 63.7865 159.102 63.4531C159.399 63.1198 159.745 62.8594 160.141 62.6719C160.542 62.4844 160.985 62.3906 161.469 62.3906C161.891 62.3906 162.269 62.4479 162.602 62.5625C162.935 62.6771 163.219 62.8594 163.453 63.1094C163.688 63.3594 163.865 63.6797 163.985 64.0703C164.11 64.4609 164.172 64.9375 164.172 65.5V71H163.235V65.4922C163.235 64.9089 163.154 64.4531 162.993 64.125C162.831 63.7917 162.602 63.5547 162.305 63.4141C162.008 63.2734 161.657 63.2031 161.25 63.2031C160.802 63.2031 160.409 63.3021 160.071 63.5C159.737 63.6927 159.456 63.9453 159.227 64.2578C159.003 64.5651 158.831 64.8958 158.711 65.25C158.591 65.599 158.526 65.9323 158.516 66.25ZM169.86 71.1562C169.308 71.1562 168.8 71.0547 168.336 70.8516C167.878 70.6484 167.477 70.362 167.133 69.9922C166.795 69.6224 166.532 69.1849 166.344 68.6797C166.162 68.1693 166.071 67.612 166.071 67.0078V66.6719C166.071 66.0208 166.167 65.4323 166.36 64.9062C166.552 64.3802 166.818 63.9297 167.157 63.5547C167.495 63.1797 167.881 62.8932 168.313 62.6953C168.75 62.4922 169.209 62.3906 169.688 62.3906C170.224 62.3906 170.701 62.487 171.118 62.6797C171.534 62.8672 171.883 63.1354 172.164 63.4844C172.451 63.8281 172.667 64.237 172.813 64.7109C172.959 65.1797 173.032 65.6979 173.032 66.2656V66.8359H166.633V66.0391H172.102V65.9297C172.091 65.4557 171.995 65.013 171.813 64.6016C171.636 64.1849 171.37 63.8464 171.016 63.5859C170.662 63.3255 170.219 63.1953 169.688 63.1953C169.292 63.1953 168.927 63.2786 168.594 63.4453C168.266 63.612 167.982 63.8516 167.743 64.1641C167.508 64.4714 167.326 64.8385 167.196 65.2656C167.071 65.6875 167.008 66.1562 167.008 66.6719V67.0078C167.008 67.4766 167.076 67.9141 167.211 68.3203C167.352 68.7214 167.55 69.0755 167.805 69.3828C168.065 69.6901 168.373 69.9297 168.727 70.1016C169.081 70.2734 169.472 70.3594 169.899 70.3594C170.399 70.3594 170.841 70.2682 171.227 70.0859C171.612 69.8984 171.959 69.6042 172.266 69.2031L172.852 69.6562C172.67 69.9271 172.44 70.1771 172.164 70.4062C171.894 70.6354 171.568 70.8177 171.188 70.9531C170.808 71.0885 170.365 71.1562 169.86 71.1562ZM174.789 70.4297C174.789 70.2474 174.847 70.0938 174.961 69.9688C175.081 69.8385 175.243 69.7734 175.446 69.7734C175.654 69.7734 175.818 69.8359 175.938 69.9609C176.058 70.0859 176.118 70.2422 176.118 70.4297C176.118 70.6068 176.058 70.7578 175.938 70.8828C175.818 71.0078 175.654 71.0703 175.446 71.0703C175.243 71.0703 175.081 71.0078 174.961 70.8828C174.847 70.7578 174.789 70.6068 174.789 70.4297Z" fill="white"/>
<path d="M88.4387 119.416C88.4387 119.225 88.4091 119.054 88.3499 118.903C88.2952 118.748 88.1926 118.609 88.0422 118.486C87.8964 118.359 87.689 118.236 87.4202 118.117C87.1558 117.994 86.814 117.867 86.3948 117.734C85.9299 117.589 85.497 117.424 85.0959 117.242C84.6949 117.06 84.3417 116.848 84.0364 116.606C83.7356 116.365 83.5009 116.087 83.3323 115.772C83.1637 115.453 83.0793 115.084 83.0793 114.665C83.0793 114.255 83.1659 113.881 83.3391 113.544C83.5168 113.207 83.7675 112.917 84.0911 112.676C84.4146 112.43 84.7952 112.241 85.2327 112.108C85.6747 111.976 86.1624 111.91 86.6956 111.91C87.4338 111.91 88.0719 112.045 88.6096 112.313C89.1519 112.582 89.5712 112.947 89.8674 113.407C90.1637 113.868 90.3118 114.385 90.3118 114.959H88.4387C88.4387 114.649 88.3726 114.376 88.2405 114.139C88.1129 113.902 87.9169 113.715 87.6526 113.578C87.3928 113.441 87.0647 113.373 86.6682 113.373C86.2854 113.373 85.9664 113.43 85.7112 113.544C85.4605 113.658 85.2714 113.813 85.1438 114.009C85.0208 114.205 84.9592 114.424 84.9592 114.665C84.9592 114.847 85.0025 115.011 85.0891 115.157C85.1757 115.299 85.3056 115.433 85.4788 115.561C85.6519 115.684 85.8661 115.8 86.1213 115.909C86.3811 116.014 86.6819 116.119 87.0237 116.224C87.5706 116.388 88.0491 116.57 88.4592 116.771C88.8739 116.971 89.218 117.199 89.4915 117.454C89.7694 117.709 89.9768 117.996 90.1135 118.315C90.2548 118.634 90.3254 118.997 90.3254 119.402C90.3254 119.831 90.2411 120.214 90.0725 120.551C89.9039 120.888 89.6624 121.175 89.3479 121.412C89.0334 121.649 88.6552 121.829 88.2131 121.952C87.7756 122.075 87.2857 122.137 86.7434 122.137C86.2603 122.137 85.7818 122.073 85.3079 121.945C84.8385 121.813 84.4124 121.617 84.0295 121.357C83.6467 121.093 83.3414 120.76 83.1135 120.359C82.8857 119.954 82.7717 119.48 82.7717 118.938H84.6584C84.6584 119.252 84.7086 119.521 84.8088 119.744C84.9137 119.963 85.0595 120.143 85.2463 120.284C85.4377 120.421 85.6611 120.521 85.9163 120.585C86.1715 120.649 86.4472 120.681 86.7434 120.681C87.1262 120.681 87.4407 120.628 87.6868 120.523C87.9374 120.414 88.1243 120.264 88.2473 120.072C88.3749 119.881 88.4387 119.662 88.4387 119.416ZM97.3118 112.047H99.1917V118.657C99.1917 119.418 99.0276 120.059 98.6995 120.578C98.3713 121.093 97.9247 121.483 97.3596 121.747C96.7945 122.007 96.1519 122.137 95.4319 122.137C94.7027 122.137 94.0533 122.007 93.4836 121.747C92.914 121.483 92.4674 121.093 92.1438 120.578C91.8202 120.059 91.6584 119.418 91.6584 118.657V112.047H93.5383V118.657C93.5383 119.122 93.6158 119.503 93.7708 119.799C93.9257 120.09 94.1444 120.307 94.427 120.448C94.7096 120.59 95.0445 120.66 95.4319 120.66C95.8238 120.66 96.1588 120.59 96.4368 120.448C96.7193 120.307 96.9358 120.09 97.0862 119.799C97.2366 119.503 97.3118 119.122 97.3118 118.657V112.047ZM104.804 118.37H102.24V116.894H104.804C105.223 116.894 105.563 116.825 105.823 116.688C106.087 116.547 106.281 116.356 106.404 116.114C106.527 115.868 106.588 115.588 106.588 115.273C106.588 114.968 106.527 114.683 106.404 114.419C106.281 114.155 106.087 113.94 105.823 113.776C105.563 113.612 105.223 113.53 104.804 113.53H102.856V122H100.976V112.047H104.804C105.579 112.047 106.24 112.186 106.786 112.464C107.338 112.737 107.757 113.118 108.044 113.605C108.336 114.089 108.482 114.64 108.482 115.26C108.482 115.902 108.336 116.456 108.044 116.921C107.757 117.386 107.338 117.743 106.786 117.994C106.24 118.245 105.579 118.37 104.804 118.37ZM113.786 118.37H111.223V116.894H113.786C114.206 116.894 114.545 116.825 114.805 116.688C115.069 116.547 115.263 116.356 115.386 116.114C115.509 115.868 115.571 115.588 115.571 115.273C115.571 114.968 115.509 114.683 115.386 114.419C115.263 114.155 115.069 113.94 114.805 113.776C114.545 113.612 114.206 113.53 113.786 113.53H111.838V122H109.958V112.047H113.786C114.561 112.047 115.222 112.186 115.769 112.464C116.32 112.737 116.74 113.118 117.027 113.605C117.318 114.089 117.464 114.64 117.464 115.26C117.464 115.902 117.318 116.456 117.027 116.921C116.74 117.386 116.32 117.743 115.769 117.994C115.222 118.245 114.561 118.37 113.786 118.37ZM127 116.771V117.283C127 118.035 126.9 118.712 126.699 119.313C126.499 119.91 126.214 120.419 125.845 120.838C125.476 121.257 125.036 121.578 124.526 121.802C124.015 122.025 123.448 122.137 122.823 122.137C122.208 122.137 121.643 122.025 121.128 121.802C120.618 121.578 120.176 121.257 119.802 120.838C119.428 120.419 119.139 119.91 118.934 119.313C118.729 118.712 118.626 118.035 118.626 117.283V116.771C118.626 116.014 118.729 115.337 118.934 114.74C119.139 114.143 119.426 113.635 119.795 113.216C120.164 112.792 120.604 112.468 121.115 112.245C121.629 112.022 122.195 111.91 122.81 111.91C123.434 111.91 124.002 112.022 124.512 112.245C125.022 112.468 125.462 112.792 125.831 113.216C126.205 113.635 126.492 114.143 126.693 114.74C126.898 115.337 127 116.014 127 116.771ZM125.1 117.283V116.757C125.1 116.215 125.05 115.738 124.949 115.328C124.849 114.913 124.701 114.565 124.505 114.282C124.309 114 124.068 113.788 123.781 113.646C123.493 113.501 123.17 113.428 122.81 113.428C122.445 113.428 122.122 113.501 121.839 113.646C121.561 113.788 121.324 114 121.128 114.282C120.932 114.565 120.782 114.913 120.677 115.328C120.577 115.738 120.527 116.215 120.527 116.757V117.283C120.527 117.821 120.577 118.297 120.677 118.712C120.782 119.127 120.932 119.478 121.128 119.765C121.329 120.047 121.57 120.261 121.853 120.407C122.135 120.553 122.459 120.626 122.823 120.626C123.188 120.626 123.512 120.553 123.794 120.407C124.077 120.261 124.314 120.047 124.505 119.765C124.701 119.478 124.849 119.127 124.949 118.712C125.05 118.297 125.1 117.821 125.1 117.283ZM128.593 112.047H132.209C132.966 112.047 133.615 112.161 134.157 112.389C134.7 112.617 135.117 112.954 135.408 113.4C135.7 113.847 135.846 114.396 135.846 115.048C135.846 115.563 135.755 116.009 135.573 116.388C135.39 116.766 135.133 117.083 134.8 117.338C134.472 117.593 134.085 117.794 133.638 117.939L133.05 118.24H129.858L129.844 116.757H132.23C132.617 116.757 132.938 116.688 133.194 116.552C133.449 116.415 133.64 116.226 133.768 115.984C133.9 115.743 133.966 115.467 133.966 115.157C133.966 114.825 133.902 114.537 133.775 114.296C133.647 114.05 133.453 113.861 133.194 113.729C132.934 113.596 132.606 113.53 132.209 113.53H130.473V122H128.593V112.047ZM134.212 122L131.908 117.543L133.898 117.536L136.229 121.904V122H134.212ZM141.328 112.047V122H139.455V112.047H141.328ZM144.418 112.047V113.53H136.4V112.047H144.418Z" fill="#383E4B"/>
</svg>
